<svg xmlns="http://www.w3.org/2000/svg" xmlns:xlink="http://www.w3.org/1999/xlink" id="Layer_1" width="198.425" height="198.425" x="0" y="0" enable-background="new 44.787 44.787 198.425 198.425" version="1.1" viewBox="44.787 44.787 198.425 198.425" xml:space="preserve"><g><g><g><path id="SVGID_1_" fill="#707070" d="M242.824,144c0,54.579-44.246,98.826-98.829,98.826c-54.576,0-98.82-44.246-98.82-98.826 s44.245-98.824,98.82-98.824C198.578,45.175,242.824,89.42,242.824,144z"/></g><g><defs><path id="SVGID_2_" d="M242.824,144c0,54.579-44.246,98.826-98.829,98.826c-54.576,0-98.82-44.246-98.82-98.826 s44.245-98.824,98.82-98.824C198.578,45.175,242.824,89.42,242.824,144z"/></defs><clipPath id="SVGID_3_"><use overflow="visible" xlink:href="#SVGID_2_"/></clipPath><path fill="#FFF" d="M254.483,244.532 c-1.392-3.644-3.337-6.995-5.716-10.027c-3.795-4.856-8.798-8.257-14.313-10.865c-1.599-0.756-3.162-1.671-4.924-2.067 c-5.495-1.251-10.939-2.723-16.344-4.335c-1.927,0.112-3.577-0.569-5.042-1.766c-4.015-1.63-8.216-2.812-11.952-5.083 c-1.315-0.205-2.568-0.53-3.47-1.598c-0.679-0.191-1.25-0.637-1.927-0.823c-1.951-0.481-3.58-1.476-4.825-3.058 c-0.745-0.5-1.54-0.935-2.247-1.502c-0.89-0.469-1.438-1.082-1.68-2.189c-0.334-1.413-0.757-2.816-1.139-4.216 c-0.516-1.413-0.536-2.91-0.839-4.357c-0.17-0.815-0.373-1.52-1.272-1.763c-0.87-0.435-1.689-0.017-2.509,0.153 c-1.662,0.361-2.573-0.159-2.839-1.929c-0.184-1.266-0.533-2.552-0.596-3.806c-0.136-2.802-0.557-5.771,2.134-7.838 c3.136-6.357,5.451-13.013,7.335-19.848c0.427-1.53,1.15-2.826,3.191-2.882c1.222-0.038,2.226-0.898,2.626-2.22 c1.205-4.007,2.354-8.042,4.212-11.832c0.57-2.755,1.938-5.316,2.056-8.182c-0.021-0.579,0.128-1.15,0.07-1.723 c-0.063-0.232-0.169-0.428-0.326-0.607c-0.106-0.067-0.21-0.141-0.308-0.229c0.062-1.226,0.153-2.451,0.11-3.67 c-0.057-1.712-0.884-3.136-2.554-3.567c-1.544-0.405-1.831-1.258-1.74-2.627c0.358-5.39,0.663-10.794,0.988-16.191 c0.056-0.18,0.034-0.35-0.057-0.505c0.057-0.084,0.062-0.191-0.008-0.315c-0.156-1.638-0.298-3.274-0.488-4.902 c-0.436-3.906-0.857-7.854-2.902-11.309c-3.947-6.679-9.438-11.797-16.332-15.307c-5.842-2.969-12.18-4.451-18.558-5.725 c-13.245-2.664-25.044,0.289-35.341,9.091c0.04,0.084,0.064,0.18,0.079,0.275l0,0l0,0c-1.173,0.749-2.084,1.733-2.727,2.952 c-1.237,2.307-3.038,4.172-4.896,5.917c-3.441,3.214-5.32,6.943-4.761,11.684c-0.128,0.058-0.258,0.128-0.382,0.223 c-0.166,0.177-0.318,0.374-0.417,0.593c-0.834,3.857,0.211,7.685,0.195,11.525c0.948,3.253,0.967,6.605,1.24,9.936 c0.147,1.826-0.361,3.063-2.126,3.688c-2.248,0.787-3.144,2.604-3.438,4.765c-0.311,2.272-0.378,4.533,0.24,6.796 c0.877,3.165,1.798,6.322,2.818,9.444c1.622,2.642,2.607,5.582,3.189,8.546c0.382,1.965,1.216,3.099,2.925,3.725 c1.42,0.521,2.197,1.489,2.505,2.934c0.505,2.311,1.363,4.507,2.066,6.75c0.823,1.83,2.168,3.443,2.184,5.58 c0.021,0.221,0.063,0.437,0.162,0.642c3.898,6.224,5.99,12.75,3.426,20.075c-1.336,1.427-2.646-0.066-3.97-0.085 c-1.32-0.03-2.44-0.149-2.762,1.485c-1.011,3.173-1.563,6.481-2.564,9.665c-0.544,1.736-1.427,3.005-3.08,3.839 c-3.631,1.834-7.312,3.506-11.221,4.612c-2.61,1.843-5.743,2.406-8.653,3.479c-5.666,2.093-11.603,3.284-17.43,4.846 c-7.141,1.914-14.058,4.29-20.026,8.854c-3.038,3.721-7.029,6.752-8.521,11.623c0,2.063,0.123,4.155-0.04,6.216 c-0.117,1.604,0.331,1.985,1.963,1.985c70.392-0.048,140.784-0.048,211.178-0.048 C255.161,246.585,254.899,245.625,254.483,244.532z" clip-path="url(#SVGID_3_)" enable-background="new" opacity=".8"/></g></g></g></svg>