<?xml version="1.0" encoding="utf-8"?>
<!-- Generator: Adobe Illustrator 16.0.0, SVG Export Plug-In . SVG Version: 6.00 Build 0)  -->
<!DOCTYPE svg PUBLIC "-//W3C//DTD SVG 1.1//EN" "http://www.w3.org/Graphics/SVG/1.1/DTD/svg11.dtd">
<svg version="1.1" id="Layer_1" xmlns="http://www.w3.org/2000/svg" xmlns:xlink="http://www.w3.org/1999/xlink" x="0px" y="0px"
	 width="287.999px" height="287.999px" viewBox="0 0 287.999 287.999" enable-background="new 0 0 287.999 287.999"
	 xml:space="preserve">
<g>
	<g>
		<defs>
			<path id="SVGID_1_" d="M243.823,144c0,55.131-44.692,99.825-99.828,99.825c-55.128,0-99.82-44.693-99.82-99.825
				c0-55.132,44.692-99.824,99.82-99.824C199.131,44.175,243.823,88.868,243.823,144z"/>
		</defs>
		<use xlink:href="#SVGID_1_"  overflow="visible" opacity="0.3" fill="#707070"/>
		<clipPath id="SVGID_2_">
			<use xlink:href="#SVGID_1_"  overflow="visible" opacity="0.3"/>
		</clipPath>
		<path opacity="0.8" clip-path="url(#SVGID_2_)" fill-rule="evenodd" clip-rule="evenodd" fill="#FFFFFF" d="M255.601,245.548
			c-1.405-3.68-3.371-7.065-5.773-10.128c-3.835-4.906-8.888-8.34-14.459-10.975c-1.616-0.764-3.194-1.688-4.974-2.088
			c-5.551-1.264-11.05-2.75-16.509-4.379c-1.946,0.113-3.613-0.575-5.094-1.783c-4.054-1.647-8.299-2.84-12.072-5.135
			c-1.328-0.207-2.594-0.535-3.505-1.614c-0.685-0.192-1.262-0.644-1.946-0.831c-1.97-0.486-3.616-1.49-4.874-3.089
			c-0.753-0.505-1.556-0.944-2.271-1.517c-0.897-0.474-1.45-1.094-1.696-2.212c-0.337-1.426-0.765-2.845-1.149-4.259
			c-0.521-1.426-0.542-2.938-0.849-4.401c-0.171-0.824-0.376-1.535-1.285-1.78c-0.878-0.439-1.706-0.018-2.533,0.154
			c-1.68,0.365-2.6-0.161-2.869-1.948c-0.185-1.279-0.538-2.577-0.602-3.845c-0.136-2.829-0.561-5.828,2.157-7.916
			c3.166-6.422,5.506-13.145,7.408-20.048c0.431-1.546,1.162-2.855,3.224-2.91c1.234-0.04,2.248-0.909,2.654-2.244
			c1.217-4.048,2.376-8.124,4.253-11.951c0.577-2.783,1.958-5.37,2.077-8.264c-0.021-0.585,0.128-1.163,0.071-1.741
			c-0.064-0.235-0.171-0.432-0.329-0.613c-0.107-0.068-0.213-0.143-0.311-0.232c0.063-1.238,0.154-2.476,0.111-3.707
			c-0.057-1.73-0.892-3.168-2.579-3.603c-1.56-0.41-1.85-1.271-1.759-2.654c0.363-5.445,0.67-10.904,0.999-16.355
			c0.056-0.182,0.035-0.353-0.057-0.51c0.057-0.085,0.063-0.193-0.008-0.318c-0.158-1.655-0.301-3.307-0.493-4.952
			c-0.441-3.945-0.867-7.934-2.932-11.423c-3.988-6.747-9.534-11.917-16.497-15.462c-5.901-3-12.303-4.496-18.745-5.783
			c-13.379-2.69-25.298,0.292-35.699,9.183c0.04,0.085,0.065,0.182,0.079,0.278l0,0l0,0c-1.185,0.756-2.105,1.751-2.754,2.982
			c-1.249,2.33-3.069,4.214-4.945,5.976c-3.476,3.247-5.374,7.014-4.809,11.802c-0.129,0.058-0.261,0.129-0.386,0.225
			c-0.167,0.179-0.321,0.378-0.421,0.599c-0.842,3.896,0.214,7.763,0.197,11.642c0.957,3.286,0.977,6.671,1.253,10.036
			c0.149,1.844-0.365,3.093-2.148,3.725c-2.27,0.795-3.175,2.63-3.472,4.813c-0.314,2.295-0.382,4.578,0.243,6.865
			c0.885,3.197,1.816,6.386,2.847,9.54c1.638,2.668,2.633,5.637,3.221,8.634c0.386,1.984,1.228,3.128,2.955,3.761
			c1.434,0.525,2.219,1.504,2.53,2.964c0.51,2.333,1.377,4.552,2.087,6.817c0.831,1.849,2.19,3.479,2.205,5.637
			c0.022,0.223,0.064,0.442,0.164,0.649c3.938,6.286,6.051,12.878,3.461,20.278c-1.349,1.44-2.672-0.068-4.01-0.087
			c-1.334-0.03-2.465-0.15-2.79,1.501c-1.021,3.205-1.578,6.547-2.59,9.763c-0.549,1.753-1.442,3.036-3.111,3.879
			c-3.667,1.851-7.385,3.54-11.334,4.657c-2.636,1.862-5.801,2.431-8.741,3.514c-5.722,2.115-11.719,3.318-17.606,4.895
			c-7.214,1.934-14.2,4.334-20.229,8.943c-3.069,3.758-7.1,6.82-8.608,11.741c0,2.084,0.124,4.198-0.04,6.278
			c-0.118,1.622,0.334,2.006,1.983,2.006c71.104-0.049,142.208-0.049,213.315-0.049
			C256.285,247.625,256.021,246.654,255.601,245.548z"/>
	</g>
</g>
</svg>
