<?xml version="1.0" encoding="utf-8"?>
<!-- Generator: Adobe Illustrator 16.0.0, SVG Export Plug-In . SVG Version: 6.00 Build 0)  -->
<!DOCTYPE svg PUBLIC "-//W3C//DTD SVG 1.1//EN" "http://www.w3.org/Graphics/SVG/1.1/DTD/svg11.dtd">
<svg version="1.1" id="Capa_1" xmlns="http://www.w3.org/2000/svg" xmlns:xlink="http://www.w3.org/1999/xlink" x="0px" y="0px"
	 width="283.46px" height="283.46px" viewBox="0 0 283.46 283.46" enable-background="new 0 0 283.46 283.46" xml:space="preserve">
<g>
	<g>
		<g>
			<path fill="#47B648" d="M272.542,86.452c-3.177-2.712-7.66-3.283-11.419-1.455l-57.501,27.993l-53.953-62.207
				c-1.996-2.302-4.893-3.623-7.938-3.623c-3.046,0-5.943,1.321-7.938,3.623L79.838,112.99l-57.5-27.993
				c-3.758-1.828-8.242-1.258-11.421,1.455c-3.178,2.712-4.447,7.051-3.232,11.05l39.93,131.348
				c1.345,4.427,5.427,7.451,10.053,7.451h168.124c4.626,0,8.709-3.024,10.053-7.451l39.93-131.348
				C276.99,93.504,275.72,89.165,272.542,86.452z M218.002,215.286H65.456L34.798,114.438l43.093,20.979
				c4.279,2.082,9.42,1.031,12.537-2.563l51.301-59.148l51.301,59.148c3.117,3.594,8.261,4.646,12.537,2.563l43.094-20.979
				L218.002,215.286z"/>
		</g>
	</g>
	<polygon fill="#47B648" points="26.428,101.398 62.49,221.919 224.766,227.613 263.674,106.143 200.092,124.174 141.729,62.49 
		102.347,110.888 90.959,127.021 	"/>
</g>
</svg>
