<svg xmlns="http://www.w3.org/2000/svg" xmlns:xlink="http://www.w3.org/1999/xlink" id="Layer_1" width="246.614" height="246.542" x="0" y="0" enable-background="new 12.226 0 246.614 246.542" version="1.1" viewBox="12.226 0 246.614 246.542" xml:space="preserve"><g><g><g><defs><path id="SVGID_1_" d="M190.651,18.753c-0.328-0.181-0.64-0.353-0.934-0.502l-0.857-0.495l0.512,0.262l0.091,0.052l0.028,0.015 l1.308,0.709c0.026,0.01,0.052,0.021,0.171,0.09c0.148,0.089,0.301,0.183,0.448,0.271l-0.01,0.016 C191.157,19.034,190.905,18.896,190.651,18.753 M186.056,16.362l-1.233-0.61c0.265,0.125,0.521,0.247,0.764,0.363 c0.146,0.072,0.214,0.1,0.284,0.131c0.452,0.224,0.921,0.452,1.376,0.688C186.86,16.745,186.457,16.554,186.056,16.362 M183.554,15.154l-0.884-0.43l-0.59-0.247c-0.612-0.279-1.227-0.545-1.848-0.819c-0.16-0.074-0.313-0.149-0.465-0.219 c0.516,0.209,1.058,0.458,1.283,0.558l-0.242-0.11c0.204,0.099,0.418,0.195,0.633,0.292l0.2,0.082 c0.178,0.079,0.347,0.156,0.529,0.239l-0.054-0.028c0.415,0.18,0.804,0.358,1.179,0.538l0.124,0.048l1.399,0.695 C184.406,15.555,183.988,15.353,183.554,15.154 M251.942,97.018c-0.147-0.629-0.302-1.256-0.462-1.885l0.525,1.771 c0.007,0.03,0.007,0.06,0.007,0.09c-0.007,0.04-0.025,0.085-0.046,0.129L251.942,97.018 M250.684,92.529l-0.639-2.285 c-0.407-1.258-0.931-2.689-1.468-4.136l-0.416-1.25l-1.218-3.09c1.382,3.171,1.867,4.683,3.103,8.475l0.923,3.109 L250.684,92.529 M203.82,27.016c-1.58-1.125-3.182-2.219-4.8-3.274l-0.161-0.11c1.69,1.098,3.356,2.233,4.986,3.404 C203.84,27.03,203.831,27.021,203.82,27.016 M197.763,22.932c-0.053-0.038-0.103-0.072-0.159-0.108v-0.008 c-0.105-0.072-0.105-0.072-0.117-0.072l-0.023-0.029c0.335,0.219,0.615,0.394,0.914,0.584l0.481,0.333 C198.498,23.399,198.127,23.164,197.763,22.932 M198.377,23.297l-0.021-0.007l0.038,0.021 C198.39,23.309,198.383,23.305,198.377,23.297 M198.012,23.097c1.965,1.251,3.906,2.557,5.808,3.919 C201.958,25.71,199.817,24.313,198.012,23.097 M255.637,117.837l0.017,0.136v-0.009L255.637,117.837 M255.843,120.591 l0.005,0.072v0.019C255.843,120.65,255.843,120.619,255.843,120.591 M255.83,120.44v0.005c-0.012-0.144-0.021-0.293-0.031-0.434 v-0.075c0.01,0.228,0.031,0.452,0.045,0.654L255.83,120.44 M255.748,119.363c-0.007-0.055-0.007-0.114-0.01-0.172 c-0.01-0.19-0.027-0.387-0.037-0.586c0.021,0.285,0.037,0.586,0.067,0.878L255.748,119.363 M255.675,118.295 c0.011,0.106,0.016,0.212,0.027,0.311C255.689,118.498,255.686,118.401,255.675,118.295 M254.78,110.88l-0.137-1.245l0.254,1.75 v-0.006c0.058,0.36,0.093,0.729,0.134,1.099c0,0.036,0,0.07,0,0.089C254.955,111.997,254.877,111.436,254.78,110.88 M251.966,97.122c0.046-0.073,0.052-0.146,0.039-0.217c0.1,0.483,0.217,0.987,0.328,1.506L251.966,97.122 M47.072,34.422 c-0.927,0.8-1.82,1.607-2.689,2.416C45.288,35.971,46.084,35.25,47.072,34.422 M82.225,31.433 c0.116-0.168,0.239-0.331,0.354-0.5c0.183-0.293,0.346-0.589,0.531-0.88l-0.775-0.102l-1.23,0.519l-0.598,1.259 c0.366-0.005,0.731-0.021,1.097-0.028L82.225,31.433 M80.218,29.825l0.089-0.063l0.278-0.485 c-0.198,0.096-0.399,0.24-0.612,0.337c-0.111,0.054-0.111,0.054-0.404,0.118c-0.13,0.033-0.32,0.093-1.071,0.456 c-0.173,0.089-0.361,0.173-0.54,0.252c0.056,0.119,0,0.274,0.142,0.353c0.048,0.026,0.288-0.007,0.408-0.038 C79.265,30.547,79.865,30.096,80.218,29.825 M101.97,12.322l1.155-0.249l0.004-0.571l-1.149-0.039 c-0.286,0.01-0.572,0.019-0.858,0.021l-0.895,0.664l-0.576,0.53l1.291,0.041L101.97,12.322 M195.058,21.326 c-0.417-0.26-0.842-0.487-1.261-0.728l-0.228-0.072c0.261,0.157,0.522,0.311,0.77,0.464c0.553,0.331,1.092,0.663,1.634,1.001 l0.117,0.031c-0.171-0.132-0.364-0.23-0.535-0.35l0.026,0.005C195.247,21.442,195.247,21.442,195.058,21.326 M189.322,17.998 c-0.429-0.232-0.867-0.459-1.313-0.687c0.228,0.126,0.468,0.244,0.698,0.37c-0.246-0.129-0.497-0.257-0.741-0.386l-0.084-0.048 c0.167,0.09,0.323,0.175,0.485,0.266l-0.159-0.077c-1.014-0.533-2.082-1.066-2.649-1.354l0.05,0.031 c-0.807-0.402-1.579-0.764-2.2-1.056l5.449,2.698l0.502,0.262L189.322,17.998 M190.771,18.774 c-0.12-0.06-0.237-0.127-0.357-0.192l-0.178-0.098l-0.747-0.398l1.319,0.71L190.771,18.774 M153.155,5.609 c-0.265-0.065-0.951-0.201-1.045-0.201l0.166,0.041l-0.085-0.007c-1.095-0.228-1.559-0.305-1.559-0.305 c0.326,0.085,0.678,0.104,1.008,0.236l-0.291-0.058l-0.685-0.144l-0.173-0.04c-0.119-0.019-0.243-0.042-0.37-0.068 c0.117,0.043,0.251,0.051,0.358,0.079l-0.023-0.005l-0.208-0.036l-0.134-0.005c1.15,0.223,1.533,0.316,1.828,0.389 c-0.753-0.13-1.463-0.445-2.246-0.395c0.05,0.02,0.855,0.213,1.512,0.324l0.071,0.006c0.124,0.023,0.241,0.056,0.367,0.066 l-0.126-0.044c0.179,0.008,0.643,0.115,0.944,0.18c-0.128-0.008-0.246-0.017-0.368-0.026c0.24,0.059,0.488,0.116,0.736,0.174 c0.265,0.052,0.527,0.124,0.797,0.16l0.268,0.003c0.352,0.036,0.668,0.29,1.048,0.185c-0.208-0.072-0.432-0.113-0.643-0.178 c0.179,0.026,0.352,0.091,0.521,0.096c-0.467-0.167-0.974-0.214-1.442-0.365h0.021L153.155,5.609 M153.251,5.915l-0.16-0.041 l0.167,0.047L153.251,5.915 M161.274,7.869l-0.319-0.109c-0.717-0.204-1.433-0.361-2.143-0.572 c-0.127-0.012-0.254-0.024-0.383-0.036c-0.778-0.237-1.582-0.427-2.37-0.638c-0.124-0.029-1.251-0.291-1.643-0.361l0.241,0.089 c0,0-0.154-0.014-0.598-0.114c-0.266-0.072-0.54-0.144-0.805-0.207c-0.864-0.072-1.679-0.38-2.527-0.511h-0.054 c0.288,0.084,0.589,0.147,0.879,0.218c0.105,0.027,0.211,0.05,0.316,0.08c1.264,0.314,1.264,0.314,1.489,0.394 c-0.11,0-0.11,0-0.991-0.227c-0.105-0.029-0.204-0.058-0.31-0.08c-0.115-0.033-0.226-0.055-0.333-0.082 c-0.097-0.029-0.204-0.055-0.314-0.083c-0.529-0.133-0.529-0.133-0.74-0.155c0.255,0.093,0.529,0.155,0.79,0.24h-0.169 c-0.165-0.042-0.347-0.091-0.521-0.135c-0.241-0.065-0.472-0.143-0.72-0.201c0.103,0.054,0.302,0.108,0.462,0.152 c-0.099,0-0.214-0.006-0.338-0.015l0.026,0.055c1.336,0.378,2.719,0.636,4.044,1.099c-0.579-0.136-1.112-0.408-1.71-0.434 c0.77,0.212,1.524,0.5,2.323,0.641c-0.061-0.047-0.061-0.047-0.848-0.298c0.522,0.008,0.961,0.347,1.481,0.363l0.109,0.003 l0.07,0.008c0-0.005-0.79-0.316-1.1-0.408c-0.187-0.057-0.34-0.101-0.499-0.149l0.055-0.012 c0.444,0.113,0.444,0.113,1.237,0.354l0.249,0.016l-0.341-0.132l0.289,0.07c0.273,0.077,0.548,0.178,0.822,0.24l0.251,0.085 c-0.044,0.001-0.044,0.001-0.181-0.017l-0.11-0.014l-0.258-0.038l0.11,0.07c-0.047,0.014-0.047,0.014-0.189,0.009 c0.035,0.079,0.035,0.079,0.326,0.177c0.269,0.088,0.476,0.167,0.696,0.235l0.047-0.038l0.101,0.005 c0.332,0.067,0.342,0.067,0.419,0.059c-0.061-0.06-0.061-0.063-0.375-0.206l0.023-0.01c0.341,0.056,0.352,0.062,1.034,0.401 l0.007,0.022c-0.234-0.043-0.234-0.043-0.472-0.055c0.09,0.157,1.236,0.492,1.459,0.504c0.272,0.007,0.804,0.187,2.414,0.735 l-0.014-0.031c-0.014-0.007-2.128-0.891-2.385-1.016l0.062-0.029c-0.485-0.173-1.015-0.346-1.536-0.516l0.115,0.016 c-0.138-0.088-0.169-0.113-1.95-0.624c0.146,0.014,0.296,0.018,0.434,0.029c2.37,0.69,2.37,0.69,4.192,1.304L160.753,8 c-0.179-0.115-0.382-0.177-0.572-0.268c0.147,0.02,0.328,0.074,1.314,0.407l0.179,0.021c-0.067-0.041-0.067-0.041-0.68-0.255 c0.077-0.007,0.204,0.005,0.328,0.01L161.274,7.869 M254.533,109.233c-0.666-4.232-1.533-8.395-2.611-12.477 c-0.239-0.298-0.971-0.604-2.231-0.916c-1.632-0.409-4.065-0.801-7.21-1.183c0,0.013,0.249,1.875,0.122,2.313l-0.034,0.194 l-0.053,0.139l-0.074-0.01c-0.137,0.001-0.301,0.07-0.396,0.147l-0.105-0.011l-0.073,0.049l-0.067,0.088l-0.164,0.155 l-0.162-0.194l-0.139-0.226c-0.175-0.158-0.199-0.162-0.229-0.163c0,0-0.581-0.141-0.795-0.329l-0.101-0.007l-0.098-0.01 l0.017,0.229c0.496,0.434,0.496,0.434,0.797,0.537c0.208,0.209,0.234,0.341,0.265,0.483l0.051,0.249 c0.083,0.175,0.197,0.4,0.284,0.571c0.047,0.173,0.105,0.405,0.131,0.577l0.05,0.195l0.03,0.247 c0.184,1.011,0.751,1.875,1.104,2.828c0.462,1.056,0.485,1.091,0.781,1.477c0.123,0.037,0.18,0.042,0.243,0.056l0.225-0.04 c0.09-0.307-0.017-0.629,0.063-0.936l0.181,0.32c2.319,5.675,2.319,5.675,2.436,6.509c0.024,0.177,0.035,0.246,0.038,0.313 c0.037,2.342,1.5,4.233,2.025,6.422c0.268,1.217-0.194,2.5,0.368,3.685c0.516,1.093,0.864,2.055,1.034,2.843l0.074,0.318 l1.289,8.444c-0.053,1.377-0.109,2.623-0.193,3.858c0.007,0.612,0.239,1.59,0.397,1.854c0.137,0.026,0.322,0.026,0.465,0.01 c0.258-0.545,0.258-1.175,0.539-1.714c0.319-0.104,0.479-0.066,0.636-0.02l0.037,0.003l0.04,0.218 c0.077-0.204,0.169-0.479,0.246-0.68c0.134-0.743,0.333-1.563,1.033-1.958c0.045-0.224,0.094-0.532,0.134-0.753 c0.087-0.548,0.612-2.536,0.622-2.541l0.251,0.214c0.025-1.509,0.061-2.364,0.061-2.374l0.112,0.103 c0.005-0.611,0.005-1.223,0.015-1.835c-0.057-4.015-0.306-7.791-0.709-11.518l0.017,0.229c-0.081-0.617-0.154-1.232-0.251-1.852 c-0.098-0.808-0.188-1.5-0.283-2.201c-0.042-0.219-0.077-0.437-0.122-0.654c0.08,0.915,0.08,0.915,0.364,3.585l-0.13-0.177 l-0.054-0.034c-0.033-0.131-0.091-0.303-0.126-0.429l-0.064-0.072c-0.006,0.402-0.034,0.797-0.014,1.2 c-0.308-0.5-0.469-1.797-0.401-2.083l0.01-0.225c0.066-0.142,0.066-0.142,0.084-0.141c0.047,0.132,0.117,0.299,0.207,0.396 c0.057-0.264,0.073-0.334-0.087-0.911l-0.035-0.028l-0.124,0.034c-0.16-0.231-0.183-0.554-0.487-0.694 c-0.077-0.115-0.106-0.122-0.127-0.133c-0.104-0.691-0.201-1.387-0.308-2.072c-0.643-2.566-1.905-4.965-1.959-7.675 c0.185,0.058,0.578,0.19,1.47,3.786c0.579,2.341,1.115,3.412,1.317,3.812l0.074,0.08l0.031,0.02l0.035-0.211 c0-0.118,0.019-0.108,0.019-0.102c0.084,0.236,0.084,0.236,0.178,0.713L254.533,109.233 M251.918,96.756 c-4.388-16.666-12.125-31.987-22.473-45.181l3.013,4.005c3.814,5.295,3.814,5.295,10.109,16.564 c2.967,5.855,2.967,5.855,7.476,18.103l1.958,6.653L251.918,96.756 M205.136,39.12c0.314,0.024,0.624,0.049,0.922,0.074 l-0.229-0.08l-0.107,0.003l-0.033-0.013c-0.08-0.036-0.127-0.07-0.347-0.23l-0.223-0.272l-0.083-0.023l-0.117,0.002 l-0.117-0.012l-0.061,0.077l-0.01,0.07l0.194,0.261l0.07,0.043L205.136,39.12 M183.618,18.201 c-0.462-0.291-0.917-0.571-1.39-0.851l-0.047-0.024l-0.01,0.005l-0.014,0.031h-0.003l-0.221-0.022l0.164,0.098 c0.39,0.242,0.779,0.487,1.165,0.729C183.374,18.179,183.502,18.194,183.618,18.201 M206.058,39.193 c6.141,0.497,10.613,1.041,12.92,1.61c0.874,0.219,1.402,0.435,1.613,0.645l-0.612-0.625c-9.39-8.808-9.39-8.808-14.615-12.693 l-6.99-4.839l-0.035-0.017c-0.358-0.227-1.595-1.01-2.419-1.517c0.51,0.315,0.556,0.345,1.142,0.732v0.01l0.478,0.331 l0.072,0.072c0.952,0.847,2.308,1.179,3.016,2.326l0.051,0.064c-0.841-0.538-1.688-1.06-2.511-1.623l0.172-0.009 c-0.358-0.229-0.699-0.457-1.043-0.682c-0.364-0.216-0.364-0.216-0.521-0.29c-0.316-0.208-0.647-0.399-0.969-0.591l-0.091,0.002 c-0.411-0.239-0.411-0.239-0.591-0.314c-0.108-0.005-0.141-0.012-0.172-0.019c0.153,0.144,0.395,0.299,0.633,0.454 c0.127,0.048,0.284,0.12,0.396,0.177c0.685,0.44,1.334,0.869,1.979,1.312c1.169,0.829,1.169,0.829,1.31,0.901 c0.195,0.111,0.343,0.199,0.98,0.608c0.124,0.077,0.178,0.127,0.231,0.156c0.486,0.427,1.037,0.767,1.553,1.15 c-0.132-0.055-0.298-0.129-0.418-0.186c-0.251-0.172-0.361-0.25-0.469-0.329c-0.112-0.074-0.262-0.171-0.378-0.245l-0.175,0.1 c0.438,0.417,0.815,0.885,1.256,1.298v0.104c0.826,0.618,1.714,1.149,2.497,1.809l-0.03-0.026 c-0.268-0.038-0.354-0.062-0.634-0.197l-0.093-0.011c-0.385-0.169-1.048-0.445-2.101-1.198c0.623,0.829,0.771,0.903,1.472,1.263 c0.298,0.25,0.298,0.25,0.505,0.393c0.152,0.104,0.188,0.106,0.225,0.111c0.325,0.037,0.736,0.276,1.229,0.724 c-0.033,0.114-0.184,0.095-0.331,0.073l0.181,0.177c-0.935-0.16-2.822-1.701-3.532-2.28c-0.234-0.115-0.331-0.135-0.435-0.141 l-0.973-0.773c-1.625-1.308-3.565-2.105-5.247-3.329c0.694,0.262,3.083,1.445,3.106,1.452c0.353,0.089,0.556,0.111,0.753,0.139 c0.405,0.167,0.767,0.406,1.187,0.538c0.103,0.015,0.131,0.021,0.159,0.023l0.077,0.015c-0.037-0.124-0.054-0.296-0.057-0.425 c-2.243-2.178-6.034-3.804-6.759-4.106c-0.382-0.216-0.382-0.216-0.78-0.396c-0.485-0.255-0.549-0.263-0.813-0.307 c-0.108,0.063-0.119,0.063-0.134,0.059c-0.436-0.216-0.877-0.423-1.303-0.657l-0.249-0.028c0.408,0.252,0.408,0.252,0.748,0.499 c-0.108-0.002-0.137-0.011-0.179-0.011c-0.263-0.121-0.263-0.121-0.982-0.615c-0.117-0.078-0.169-0.114-0.228-0.148 c-0.438-0.194-0.438-0.194-1.234-0.676l-0.261-0.026l0.179,0.175c-0.076-0.008-0.076-0.008-1.288-0.418 c-0.263-0.126-0.389-0.195-0.502-0.267l0.207,0.008c-0.166-0.116-0.39-0.271-0.551-0.389c-1.423-0.746-2.291-0.901-2.295-0.901 c0.31,0.185,0.626,0.379,0.935,0.563c-0.392-0.103-0.603-0.235-0.817-0.362c-0.113-0.072-0.258-0.176-0.352-0.259 c-0.211-0.146-0.306-0.2-0.395-0.253c-0.214-0.02-0.434-0.04-0.659-0.067c0.896,0.526,0.896,0.526,1.159,0.72 c0.18,0.118,0.292,0.182,0.397,0.243l0.217,0.122l-0.083,0.017c-0.801-0.535-0.857-0.566-1.386-0.819 c-0.199-0.048-0.267-0.06-0.337-0.061l-0.771-0.465l-0.197-0.053l0.047,0.036l0.146,0.146l-0.187,0.094 c0.233,0.204,0.51,0.368,0.753,0.571l-0.025,0.096c-0.148-0.05-0.394-0.115-0.821-0.431c-0.241-0.142-0.362-0.151-0.485-0.163 l-0.111,0.178c0.288,0.374,0.849,0.656,1.643,0.845c0.256,0.146,0.47,0.295,0.701,0.434l-0.231-0.012 c-0.324-0.159-0.699-0.188-1.046-0.288c-0.122-0.015-0.189-0.02-0.271-0.025c1.039,0.679,1.058,0.699,1.32,0.941 c-0.931-0.367-1.801-0.883-2.707-1.292c-0.012,0.144,0.168,0.27,0.354,0.389c0.141,0.087,1.376,0.812,1.63,1.233 c-0.281,0.074-0.284,0.074-1.131-0.548l0.137,0.193l-0.153,0.134c0.115,0.103,0.277,0.238,0.408,0.341 c0.291,0.19,0.641,0.257,0.934,0.471c0.168,0.125,0.255,0.193,0.344,0.262l0.152,0.147c-0.56-0.136-2.046-1.047-2.109-1.083 c0.067,0.209,0.335,0.413,0.612,0.617c-0.137,0.005-0.301,0.007-0.438,0.005c0.037,0.103,0.037,0.103,0.648,0.543 c-0.112,0.059-0.273,0.109-0.397,0.129c0.058,0.104,0.134,0.249,0.188,0.354l-0.08,0.041c0.08,0.136,0.218,0.299,0.325,0.41 l-0.147-0.012l0.101,0.186c0.155,0.079,0.251,0.083,0.35,0.094c-0.028-0.116,0-0.291,0.048-0.391l0.222,0.001l-0.03-0.202 c0.104-0.075,0.214-0.199,0.268-0.307c0.645,0.054,0.773,0.144,1.104,0.459c-0.124-0.018-0.288-0.022-0.411-0.028l0.153,0.139 l-0.205,0.046c0.179,0.418,1.189,1.361,1.311,1.464l-0.233,0.029c0.016,0.021,1.655,2.725,1.988,3.039l-0.235-0.197 c-0.098,0.471-0.098,0.471-0.051,0.598c-0.106,0.059-0.234,0.178-0.311,0.276c0.1,0.115,0.234,0.274,0.334,0.387l0.211,0.065 c0.248-0.044,0.358-0.036,0.48-0.029c0.323,0.382,0.323,0.382,0.454,0.507c-0.044,0.121-0.087,0.286-0.107,0.413l-0.211,0.043 c0.084,0.34,0.054,0.384-0.122,0.572c0.103,0.214,0.103,0.214,0.333,0.584l-0.157,0.169c-0.161-0.072-0.372-0.176-0.53-0.245 c-0.206-0.02-0.316-0.031-0.438-0.036l0.315,0.428c0.138,0.11,0.299,0.263,0.436,0.371l-0.054,0.221l-0.216,0.075 c-0.099-0.005-0.108-0.005-0.108-0.005h-0.021h-0.005h-0.015h-0.018l-0.01-0.005h-0.012l0,0c-0.179,0.2-0.179,0.2-0.249,0.57 h-0.211L185.2,30.98c0.246,0.273,0.741,0.84-0.035,0.832c-0.074,0.108-0.141,0.278-0.147,0.396 c0.528,0.521,0.528,0.521,0.587,0.69l-0.139,0.165c0.211,0.5,0.693,0.748,0.987,1.171c-0.003,0.159-0.077,0.152-0.141,0.147 l0.058,0.198c0.141,0.237,0.271,0.417,0.396,0.595c0.183,0.012,0.38,0.021,0.563,0.034c0.594-0.118,0.797,0.517,0.809,0.522 l-0.111,0.194c0.117,0.19,0.24,0.389,0.37,0.574l-0.179,0.123c0.242,0.566,0.242,0.566,1.313,0.696 c0.276,0.418,0.276,0.418,0.391,0.649l-0.089,0.199c1.277,0.063,2.525,0.128,3.737,0.198c-0.043-0.236-0.073-0.475-0.141-0.699 l0.181-0.101l0.197,0.072c0.021-0.3-0.111-0.482-0.247-0.67c0.823,0.11,1.687,1.413,1.697,1.426 c2.136,0.188,4.117,0.309,5.981,0.435l0.035-0.2l0.203-0.038c-0.054-0.526-0.532-1.426-0.532-1.435 c-0.11-0.133-0.204-0.233-0.281-0.326c-0.372-0.402-0.449-0.496-1.192-0.425c-0.557-0.612-1.396-0.913-1.867-1.616 c-0.623-0.718-1.242-1.425-1.872-2.122c0-0.748-0.772-1.097-0.91-1.774l0.225-0.024c0.04-0.217,0.065-0.342-0.248-0.798 c0.109-0.065,0.265-0.106,0.384-0.1c-0.218-0.45-0.218-0.45-0.474-0.761l0.02-0.204l0.211-0.024 c-0.134-1.272-1.5-1.302-2.105-2.097l0.066-0.201c-0.291-0.382-0.686-0.757-0.836-0.905c0.11-0.052,0.301-0.074,0.423-0.038 c0.112,0.019,0.122,0.019,0.122,0.019l0,0h0.011h0.006l0.014,0.003h0.007h0.003h0.014c0.239,0.144,0.616,0.384,1.121,0.723 l-0.07-0.208c0.285-0.014,0.295-0.014,1.31,0.684c0.378,0.326,0.666,0.576,0.955,0.83c-0.134-0.01-0.266-0.023-0.403-0.036 c1.366,1.202,1.507,1.326,1.554,1.784c-0.127-0.029-0.307-0.077-0.431-0.125l-0.158,0.148c1.655,2.773,1.655,2.773,3.297,4.38 c0.203,0.214,0.283,0.306,0.372,0.394c0.01,0.016,2.75,2.09,4.026,2.571l0.088,0.005c0.02-0.138,0.029-0.32,0.023-0.458 c0.301-0.067,0.582,0.162,0.883,0.1c-0.029-0.118-0.063-0.269-0.087-0.39c0.402-0.09,0.783-0.057,1.152-0.015l-0.041-0.214 c0.156-0.028,0.178-0.02,0.178-0.02c0.333,0.217,0.586,0.522,0.944,0.704c0.23,0.024,0.443,0.043,0.668,0.069l0.322,0.279 l0.109,0.188c-0.103,0.018-0.103,0.018-0.618,0.011c0,0.331,0,0.331,0.566,1.451c-0.56-0.054-0.907-0.533-1.406-0.705 l-0.144,0.179c-0.234-0.013-0.234-0.013-0.633-0.124l-0.134,0.154l0.033,0.204c-0.127-0.036-0.303-0.096-0.412-0.162 l-0.179,0.122c0.242,0.468,0.443,0.79,0.453,0.792L206.058,39.193 M193.58,38.375c-1.215-0.075-2.462-0.141-3.739-0.204 l0.018,0.036c0.029,0.19,0.029,0.19,0.064,0.24c0.077,0.117,0.211,0.176,0.293,0.286l0.136,0.216 c0.688,0.027,0.688,0.027,0.717,0.033l0.179,0.143c0.057,0.059,0.057,0.059,0.579,0.442l0.331-0.13 c0.281,0.089,0.51,0.3,0.827,0.244c0,0,0.335-0.062,0.241-0.319l0.03-0.137c0.261,0.016,0.261,0.016,0.331-0.041l0.077-0.223 c-0.003-0.124-0.104-0.209-0.104-0.331L193.58,38.375 M201.236,38.85c-1.852-0.143-3.831-0.263-5.905-0.384 c0.318,0.417,0.847,0.604,1.165,1.018l0.104,0.139l0.021,0.313c0.061,0.062,0.485,0.612,0.879,0.837 c0.734,0.41,0.734,0.41,0.962,0.677l0.197,0.29l0.199,0.286c0.531,0.686,1.071,1.039,1.42,1.215 c0.078,0.036,0.281,0.135,0.471,0.445c0.148,0.233,0.155,0.507,0.284,0.739l0.094,0.149c0.148,0.213,0.335,0.397,0.485,0.605 c0.495,0.035,0.984,0.062,1.466,0.091c-0.605-1.039-0.605-1.039-0.509-1.308c0.047-0.026,0.047-0.026,0.201-0.006l0.219,0.02 c0.21,0.053,0.347,0.295,0.598,0.235c0.074-0.142-0.097-0.291,0.021-0.425c0.054-0.059,0.113-0.05,0.348-0.031 c-0.179-0.293-0.386-0.587-0.597-0.886c0.263,0.02,0.517,0.034,0.771,0.052c-0.293-0.449-0.293-0.449-0.522-0.727 c-0.122-0.007-0.244-0.017-0.375-0.025c-0.354,0.111-0.518-0.24-0.787-0.33c-0.057-0.166-0.105-0.325-0.157-0.489 c-0.277-0.77-0.934-1.315-1.205-2.085l0.077-0.077l-0.04-0.263L201.236,38.85 M251.918,96.756 c-4.388-16.666-12.125-31.987-22.473-45.181c-2.607-3.078-6.086-7.196-8.854-10.129c-0.211-0.209-0.739-0.425-1.611-0.645 c-2.305-0.568-6.779-1.112-12.92-1.609c-0.298-0.025-0.609-0.049-0.923-0.074c0.211,0.081,0.211,0.081,0.227,0.084l0,0h0.023 l0.01,0.005h0.003h0.011h0.017h0.01l0.288,0.206c-0.204,0.02-0.479,0.138-0.63,0.3c0.462,0.74,0.928,0.819,1.519,0.914 c0.072-0.196,0.072-0.513-0.021-0.708c1.081,0.146,2.554,1.851,2.563,1.87c-0.2,0.429-0.2,0.429,0.193,0.991 c0.073,0.255-0.029,0.25-0.136,0.237c-0.171-0.06-0.171-0.06-1.386-1.068l-0.175-0.012c-0.134-0.175-0.312-0.408-0.45-0.583 c-0.115-0.008-0.234-0.018-0.34-0.029c1.127,2.759,1.604,3.901,2.886,5.12l0.117,0.298c-1.566-0.381-1.566-0.381-1.742-0.365 c0.115,0.745,0.845,1.019,1.215,1.57l-0.144,0.064c-0.691-0.447-1.338-0.958-2.023-1.418c-0.154,0.072-0.154,0.072-0.857,1.443 c-0.23-0.014-0.537-0.02-0.76-0.012c-0.834,0.958-1.719-0.552-2.005-1.049c-0.149-0.01-0.29-0.021-0.434-0.027 c-0.019,0.108-0.039,0.237-0.065,0.346c-0.117-0.015-0.272-0.029-0.385-0.038c-0.309-0.056-0.449-0.067-0.593-0.077 c-0.11,0.012-0.255,0.026-0.368,0.039c0.104,0.206,0.251,0.484,0.363,0.686c-0.032,0.235-0.18,0.225-0.333,0.218 c-0.603-0.123-0.633-0.163-1.128-0.857l-0.253-0.034c-0.152-0.009-0.303-0.018-0.452-0.029 c-0.105-0.178-0.216-0.356-0.316-0.533l-0.236-0.312c0.22-0.283,0.511-0.264,0.799-0.249c0.488,0.139,0.91,0.444,1.386,0.595 l0.237-0.286c-0.392-0.843-1.275-2.376-1.281-2.382c-0.3-0.24-0.436-0.246-0.567-0.25c-0.206,0.067-0.475,0.167-0.679,0.247 c0.027,0.098,0.067,0.238,0.094,0.331c-0.071,0.249-0.106,0.242-0.146,0.242c-0.2-0.109-0.633-0.332-0.633-1.166 c-0.142-0.221-0.246-0.382-0.346-0.535c-1.601,0.213-1.212-2.033-2.464-2.373c-0.021,0.068-0.021,0.068,0.176,1.069 c-0.176,0.104-0.424,0.233-0.611,0.327c0.089,0.18,0.248,0.414,0.401,0.566c0.061,0.108,0.098,0.157,0.133,0.209 c-0.011,0.103-0.028,0.242-0.028,0.342l-0.298,0.239c0.113,0.399,0.113,0.399,2.176,2.764c0.062,0.104,0.113,0.203,0.167,0.307 c0.084,0.203,0.199,0.479,0.288,0.682c0.313,0.423,0.716,0.767,1.039,1.172c0.176,0.294,0.286,0.499,0.394,0.707 c-0.115-0.011-0.234-0.016-0.354-0.023c-0.228,0.046-0.548,0.093-0.79,0.105l-0.295-0.012c-0.436-0.1-0.546-0.132-1.426-0.127 c-0.011,0.108-0.021,0.254-0.032,0.362c-0.192,0.094-0.437,0.281-0.575,0.451c0.105,0.638,0.105,0.638-0.211,0.958l-0.316-0.235 c-0.134-0.017-0.231-0.021-0.318-0.026l-0.234-0.013c-0.104,0.013-0.234,0.026-0.348,0.031c-0.044,0.17,0.05,0.375,0.148,0.581 l0.653,0.338c0.158,0.342,0.329,0.69,0.491,1.035c-0.671-0.043-0.793,0.174-1.482,1.417c-0.115,0.005-0.203,0-0.291,0 c-0.215,0-0.492-0.007-0.701-0.031c0.115,0.641,0.385,1.29,0.649,1.949c-0.682-0.027-0.801-0.029-1.42,0.173 c0.099,0.334,0.228,0.663,0.358,1c-0.337-0.011-0.678-0.028-1.015-0.041c-0.218-0.114-0.218-0.114-1.014-0.221 c-0.332-0.191-0.367-0.304-0.412-0.408c-0.159-0.163-0.445-0.3-0.677-0.322c-0.052,0.368,0.065,0.706,0.182,1.035l0.334,0.144 c0.088,0.237,0.204,0.545,0.285,0.782l0.263,0.335c0.052,0.142,0.105,0.283,0.15,0.423c-1.887,0.129-2.767-0.728-2.778-0.735 c-1.423,0.547-1.423,0.547-1.538,0.725c0.037,0.108,0.08,0.25,0.099,0.353c0.319,0.25,0.406,0.255,0.506,0.255 c0.671,0.757,1.304,0.737,1.568,0.726c0.214,0.009,0.314,0.011,0.408,0.013c0.728,0.517,1.405,1.08,2.105,1.614 c0.301,0.681,0.502,1.281,0.689,1.889c1.339,1.561,3.587,4.18,2.203,5.659c0,0.105,0.013,0.25,0.018,0.354 c-0.688,0.528-0.688,0.528-1.039,0.586c-0.099-0.007-0.204-0.011-0.313-0.016c-0.973-0.438-2.101-0.535-2.983-1.227 c-1.177-0.096-2.097-0.129-3.031-0.16c-1.265-0.187-1.265-0.187-1.496-0.327c-0.343-0.175-0.394-0.177-0.452-0.182l-0.281,0.206 c0.027,0.106,0.063,0.252,0.084,0.363c-0.603,0.286-1.135,0.27-1.67,0.252l-0.082,0.352c0.969,1.151,0.597,2.867,1.668,3.984 c0.161,0.775,0.316,1.5,0.445,2.224c0,0.104,0.014,0.239,0.014,0.347c-1.108,1.115-0.535,2.035,0.019,2.926l0.236,0.288 c0.127,0.315,0.146,0.444,0.17,0.571c0.019,0.127,0.044,0.252,0.072,0.379c-0.272,0.484-0.291,0.628,0.028,1.76 c0.354,0.142,0.687,0.158,1.015,0.165c0.966-0.209,1.827,0.479,2.792,0.303c0.171,0.168,0.171,0.168,1.4,0.789 c0.391,0.464,0.595,1.071,1.1,1.431c0.04-0.127,0.098-0.297,0.134-0.423l-0.341-0.111c4.297-2.62,7.77-3.85,7.783-3.856 c-0.098-0.409-0.189-0.833-0.278-1.25c-1.004-1.555-1.004-1.555-0.701-3.238c0.038-0.218,0.085-0.514,0.115-0.729 c0.231,0,0.518-0.007,0.742-0.016c0.129-0.17,0.259-0.437,0.319-0.646c0.188-0.1,0.459-0.178,0.673-0.193l0.087-0.336 c0.788-0.067,1.751-0.158,1.751-0.158c0.113-0.392,0.014-0.759-0.105-1.125l-0.099-0.367c-0.59-1.441-0.576-2.159-0.576-2.167 c0.569-0.354,0.569-0.354,1.774-0.09h0.01h0.023h0.011l0.02,0.005h0.021h0.023h0.012h0.019c1.229,0.641,1.229,0.641,1.463,0.69 c0.411,0.024,0.542,0.028,0.679,0.038c0.1-0.013,0.243-0.033,0.352-0.048c0.037-1.071,0.037-1.071,0.154-1.447 c0.405-0.046,0.495-0.041,0.586-0.032c0.242,0.021,0.816,0.075,1.128-1.077c1.97,0.554,2.394,2.76,3.964,3.737 c0.528,0.327,0.528,0.327,0.884,0.939c2.563,1.81,7.319,5.178,7.85,8.049c-1.071,0.202-1.071,0.202-1.188,0.772 c-0.979,0.25-1.921-0.101-2.872-0.152c0.049,0.132,0.134,0.317,0.181,0.459c0.961,0.557,1.507,1.635,2.595,2.036 c0.502,0.031,1.004,0.06,1.503,0.089c-0.131-0.479-0.268-0.958-0.392-1.442c0.383-0.265,0.559-0.741,0.991-0.958 c-0.064-0.5-0.135-1.004-0.218-1.504c0.144-0.154,0.39-0.307,0.587-0.362c0.067-0.183,0.084-0.466,0.035-0.659 c-0.155-0.373-0.204-0.513-0.24-0.652c-0.452,0.012-0.606,0-0.772-0.012c-0.296-0.197-0.35-0.339-0.383-0.485 c-0.027-0.103-0.052-0.234-0.074-0.337c0.262-0.198,0.573-0.175,0.891-0.157c0.757,0.354,0.914,0.57,1.176,0.899 c0.057-0.783-0.464-1.359-0.693-2.041c-1.716-0.544-2.982-2.347-2.998-2.368c-0.999-0.067-1.538-1.014-2.438-1.271 c-0.356-1.102-1.435-1.624-2.035-2.525c-0.115-0.044-0.204-0.051-0.278-0.057c-0.716-1.301-0.716-1.301-1.55-1.281 c-0.188-0.312-0.312-0.623-0.429-0.933l0.107-0.341c0.117-0.302,0.094-0.361,0.077-0.418c-0.614-1.13-0.614-1.13-0.611-1.251 c1.184-0.193,5.787,4.513,5.83,4.564c0.516,0.579,0.549,0.587,1.285,0.708c0.077,0.126,0.189,0.294,0.267,0.427 c0.805,1.007,2.216,1.258,2.989,2.336c1.18,1.69,1.496,3.792,2.563,5.539c0.211,0.014,0.485,0.065,0.696,0.124 c0.412,0.628,0.576,1.127,0.731,1.633c-0.192-0.015-0.37-0.028-0.559-0.038c-0.032-0.111-0.067-0.255-0.093-0.36 c-0.1-0.036-0.24-0.081-0.341-0.113c-0.04,0.623,0.519,1.245,1.382,2.115c0.067-0.129,0.161-0.308,0.243-0.437 c1.053,0.518,0.996,1.727,1.599,2.521c0.335,0.156,0.495,0.167,0.656,0.178c0.102,0,0.24-0.003,0.354-0.009 c0.127-0.889,0.127-0.889,0.08-1.034c-0.05-0.183-0.089-0.313-0.127-0.438c-0.108-0.185-0.206-0.478-0.206-0.69l0.283-0.206 c0.157,0.132,0.368,0.322,0.492,0.483c0.268,0.012,0.326,0.02,0.399,0.022c0.146-0.49,0.146-0.49-0.205-1.5 c0.104,0.008,0.247,0.028,0.352,0.041l0.113-0.332c-0.563-0.818-0.603-0.828-1.031-0.952c0.263,0.671,0.263,0.671,0.362,1.135 c-0.26-0.047-0.867-0.155-2.983-3.402c-0.122-0.363-0.164-0.489-0.211-0.61c0.019-0.108,0.025-0.252,0.037-0.358l0.283,0.206 c0.539,0.538,0.539,0.538,0.882,0.615c0.218,0.009,0.281,0.017,0.348,0.019l0.205,0.014c0.034-0.413,0.034-0.413-0.416-0.89 c0.014-0.116,0.014-0.271,0.014-0.387c0.931-0.552,1.435,0.518,2.18,0.664c0.477,0.797,0.477,0.797,0.609,0.908 c0.152,0.17,0.311,0.454,0.378,0.675l-0.251,0.253c0.308,1.058,1.376,1.683,1.58,2.801c0.097,0.205,0.19,0.491,0.236,0.714 c0.041,0.159,0.073,0.267,0.111,0.375c0.154,0.315,0.154,0.315,0.606,1.035l0.136,0.206l0.129,0.101l0.127,0.202l0.189,0.206 l0.127,0.147c0.144,0.217,0.206,0.571,0.224,0.816l0.011,0.19l0.028,0.247c0.197,0.679,0.197,0.679,0.396,1.123l0.152,0.198 l0.141,0.155c0.04-0.183,0.054-0.425,0.026-0.607l-0.063-0.485c-0.068-0.237-0.167-0.55-0.254-0.776 c-0.03-0.108-0.063-0.249-0.098-0.351c0-0.214,0.051-0.214,0.107-0.205l0.109,0.044l0.148,0.167l0.114,0.187l0.144,0.165 c0.144,0.184,0.335,0.424,0.476,0.612l0.16,0.249l0.129,0.197l0.129,0.108l0.075,0.01c0.18,0.027,0.407,0.112,0.518,0.238 c0.241,0.063,0.276,0.074,0.312,0.075l0.057-0.092l0.057-0.129l-0.077-0.19l-0.05-0.198c-0.254-0.639-0.254-0.639-0.249-1.011 l-0.009-0.191l0.061-0.177c0.211,0.001,0.479,0.115,0.626,0.251c0.108,0.173,0.266,0.396,0.396,0.552 c0.141,0.18,0.319,0.409,0.467,0.576l0.121,0.199l0.122,0.151l0.099,0.063l0.144,0.108c0.379,0.042,0.747,0.089,1.104,0.123 c-0.058-0.2-0.146-0.475-0.219-0.679l-0.067-0.242c-0.082-0.223-0.182-0.529-0.229-0.763l0.214,0.057l0.054-0.034l0.122,0.017 c0.134,0.072,0.134,0.072,0.661,0.682c0.202,0.065,0.225,0.067,0.253,0.072l0.055-0.089l-0.03-0.178l0.03-0.142l0.089,0.063 c0.075,0.157,0.18,0.367,0.286,0.5l0.077,0.187c0.22,0.696,0.22,0.696,0.321,1.265c0.154,1.204,0.462,1.887,0.572,2.143 l0.077,0.199c0.26,0.507,0.26,0.507,0.318,1.133l-0.037,0.133l0.014,0.196c0.061,0.208,0.117,0.481,0.147,0.69v0.194 c-0.046,1.15-0.046,1.15-0.122,1.279l-0.039,0.139l-0.031,0.189l0.031,0.198c3.184,0.583,5.622,0.975,7.249,1.384 C250.947,96.152,251.682,96.458,251.918,96.756 M255.855,120.722l-0.191-2.429v-0.022c-0.01-0.142-0.01-0.288-0.026-0.434 l-0.007-0.05c-0.201-2.226-0.459-4.081-0.459-4.09l-0.029-0.048c0.094,0.787,0.117,0.973,0.141,1.338 c0.404,3.726,0.656,7.503,0.72,11.319l0.036,0.067v-0.823c-0.02-0.664-0.055-1.325-0.05-1.99l0.007,0.007 c0.007,0.175,0.01,0.343,0.026,0.515C256.022,124.07,255.972,122.586,255.855,120.722 M254.903,111.391l-0.26-1.76 c-0.747-3.824-1.707-8.947-2.642-12.728l-0.083-0.144c1.081,4.079,1.948,8.243,2.612,12.476c0.122,0.679,0.192,1.369,0.33,2.038 l0.04,0.129v-0.011 M176.856,38.163l-0.034-0.069l-0.361,0.159c-0.127,0.093-0.115,0.27-0.241,0.368l-0.207,0.059l-0.022,0.022 l0.025,0.26c-0.04,0.161-0.19,0.274-0.194,0.455c0,0.135,0.099,0.25,0.145,0.372l0.326,0.147l0.194-0.131 c0.015-0.035,0.015-0.035,0.031-0.186l0.032-0.163v-0.158l0.07-0.049c0.214,0.012,0.423,0.028,0.446-0.052l-0.047-0.118 l-0.08-0.152l0.044-0.278l-0.009-0.072C176.939,38.429,176.896,38.279,176.856,38.163 M192.909,51.256 c-0.092-0.211-0.194-0.42-0.336-0.656c-0.598-0.353-0.965-0.989-1.544-1.355l-0.204,0.111c0.117,0.161,0.117,0.161,0.012,0.729 c-0.249,0.132-0.249,0.132-1.371-1.737c-0.251-0.016-0.505-0.031-0.765-0.039c-0.274-0.764-0.487-1.159-0.487-1.159 c-0.324-0.396-0.872-0.512-1.229-0.867l-0.297-0.086c-0.224-0.442-0.807-0.536-0.98-1.013c-0.124-0.295-1.013-1.207-1.519-1.227 c-0.868-0.036-1.633-0.314-1.193-0.998c-0.077-0.218-0.077-0.218-0.071-0.292c0.299-0.006,0.299-0.006,0.453-0.039 c-0.045-0.101-0.092-0.199-0.181-0.367c-0.19-0.328,0.229-0.591,0.091-0.913c-0.205-0.389-0.402-0.775-0.613-1.163 c-0.807-0.031-1.613-0.062-2.43-0.163c-0.021-0.247-0.021-0.247,0.106-0.346c0.017-0.278-0.265-0.435-0.265-0.698 c0,0,0.255-0.479,0.27-0.584c-0.266-0.229-0.286-0.245-0.483-0.276l-0.241,0.013c-0.11,0-0.234-0.006-0.41,0 c-0.087,0.041-0.234,0.108-1.06-0.021l-0.066,0.057c0.181,0.335,0.188,0.723,0.281,1.084c0.12,0.356,0.352,0.656,0.495,1 c-0.479,0.039-0.865-0.271-1.318-0.334c-0.7-0.083,0.085,0.951,0.11,1.002c0.249,0.322,0.729,0.151,0.99,0.456v0.208 c0.051,0.091,0.098,0.196,0.168,0.367c0.033,0.293,0.422,0.465,0.299,0.817c-0.709,0.177-0.709,0.177-0.327,0.839 c0.179,0.008,0.356,0.013,0.587-0.005c0.052-0.06,0.114-0.152,0.94,0.505c0.175,0.003,0.358,0.009,0.532,0.015 c-0.142-0.361-0.142-0.361-0.139-0.587c0.012,0.005,1.157,1.063,1.048,1.536c-0.657,0.051-0.323,0.393,0.056,0.785 c0.45,0.019,0.89,0.034,1.335,0.051l-0.005-0.296c0.889,0.459,1.093,1.603,2.018,2.026c0.134,0.627,0.134,0.627,0.266,0.778 c0.377,0.427,0.424,0.581,0.261,0.776l-0.812-0.044c-0.263-0.063-0.488-0.264-0.779-0.264l-0.178-0.008l-0.216-0.011 c-0.035,0.055-0.035,0.055-0.084,0.312l-0.035,0.327c-0.154-0.027-0.307-0.027-0.469-0.041l0.057,0.316 c0.531,0.301,1.58-0.021,1.624,0.837c-0.092-0.001-0.178-0.005-0.302,0.016c-0.177,0.214-0.177,0.214-0.153,0.481 c-0.094,0.081-0.121,0.108-0.363,0.09l-0.032-0.003h-0.02h-0.021h-0.026h-0.028h-0.019h-0.021h-0.023 c0.271,1.311,0.854,0.937,1.095,0.779c0.107-0.063,2.199,0.292,2.206,0.297c0.114,0.038,0.403,0.458,0.15,0.654 c-0.403,0.302-0.91-0.031-1.313,0.245c-0.021,0.11,0,0.218-0.042,0.328c-0.221,0.008-0.221,0.008-0.765,0.124 c0.259,0.64,0.259,0.64,0.286,0.972c-0.276,0.322-0.352,0.344-0.689,0.464c0.472,0.262,0.472,0.262,1.154,0.038l0.248-0.232 l-0.037-0.236c0.267,0.014,0.473,0.185,0.71,0.257c0.279,0.013,0.556,0.026,0.839,0.039c-0.26-0.705-0.246-0.739-0.18-0.867 c2.143,0.382,2.114,0.073,2.079-0.347l0.063-0.079c0.516,0.058,0.83,0.528,1.332,0.62l0.168,0.005 c0.345-0.136,0.71,0.104,1.051-0.058c0.161-0.074,0.139-0.253,0.121-0.499c0.234-0.106,0.521,0.064,0.743-0.161 c-0.101-0.496-0.569-0.73-0.815-1.131l-0.084-0.214c-0.07-0.158-0.07-0.158-0.035-0.284c0.15-0.045,0.305-0.02,0.466-0.038 c0-0.003-0.072-0.35-0.161-0.636C192.557,51.241,192.733,51.251,192.909,51.256 M177.448,46.219h0.007l-0.134-0.007 L177.448,46.219 M181.332,46.617c-0.104-0.434-0.536-0.569-0.766-0.888c-0.122-0.183-0.146-0.438-0.326-0.606 c-0.04-0.043-0.127-0.13-0.358-0.234c-0.102-0.049-0.217,0.021-0.317-0.029c-0.117-0.062-0.198-0.177-0.325-0.214l-0.134-0.005 c-0.197,0.005-0.537,0.18-0.569,0.203l-0.013,0.298l-0.218,0.139c-0.32-0.194-0.569-0.492-0.928-0.629 c-0.183-0.061-0.438,0.033-0.622,0.052c0.223,0.497,0.314,1.033,0.568,1.513l-0.113-0.005l-0.067,0.012l-0.194,0.141 c-0.11,0.029-0.217-0.033-0.329,0.005l-0.112,0.067c-0.103,0.072-0.249,0.18-0.395,0.089c-0.309-0.194-0.309-0.194-0.56-0.142 c0.276,0.723,0.536,1.454,0.799,2.187c0.438,0.053,0.438,0.053,0.962,0.036c0.121,0.322,0.239,0.646,0.349,0.973 c-0.228,0.02-0.464,0.014-0.687,0.05c-0.27,0.463,0.214,0.846,0.124,1.292c-0.248,0.13-0.355,0.19-0.101,0.635 c0.181,0.319,0.762,0.509,0.762,0.509c0.259,0.079,0.417-0.19,0.662-0.196c0,0,0.34-0.002,0.685,0.222 c0.262-0.018,0.492-0.364,0.513-0.409c0.01-0.018,0.01-0.018-0.061-0.365c-0.047-0.15,0.147-0.157,0.188-0.266 c0.822,0.029,1.624,0.057,2.431,0.084c-0.063-0.146-0.112-0.3-0.168-0.448c-0.123-0.257-0.425-0.394-0.465-0.706 c0.29-0.207,0.29-0.207,0.251-0.411c-0.057-0.24-0.226-0.795-0.741-1.866c-0.086-0.204-0.169-0.405-0.25-0.617 C181.318,47.112,181.378,46.837,181.332,46.617 M237.342,192.207c0.072-0.113,0.145-0.23,0.206-0.352 c2.569-4.486,2.529-4.707,2.436-5.307c-0.335,0.654-0.335,0.654-2.989,4.598c-0.907,0.063-0.675,1.121-1.245,1.473 c-0.804-0.211-0.804-0.211-3.04,3c-0.971,1.404-1.278,3.23-2.698,4.357l-0.08-0.09c-0.921,1.047-1.744,2.176-2.624,3.25 c-0.091,0.107-0.164,0.219-0.243,0.326c-0.373,0.535-0.678,1.109-1.066,1.637c-0.159,0.215-0.316,0.43-0.492,0.643 c-0.432,0.621-0.931,1.197-1.353,1.84l0.07,0.096c0.135,0.014,0.271-0.004,0.404,0.014c-0.297,0.473-0.297,0.473-0.297,0.566 l0.098,0.059v0.129c2.113-0.525,10.93-13.188,11.017-13.318c0.141-0.227,0.284-0.451,0.432-0.688 c0.134-0.236,0.258-0.475,0.395-0.703c0.07-0.117,0.131-0.234,0.203-0.352C236.762,192.986,237.084,192.619,237.342,192.207 M254.003,142.787c0.057-0.553,0.115-1.102-0.352-1.486c-0.09,0.215-0.2,0.498-0.281,0.713c-0.23,0.064-0.545,0.146-0.77,0.217 c-0.063-0.02-0.129-0.029-0.82,0.055c-0.134-0.16-0.312-0.379-0.443-0.547c-0.052-2.497-0.052-2.497-0.199-3.057 c-0.007-5.361-3.488-10.023-3.09-15.465c-0.021-0.292-0.021-0.58-0.037-1.106c-0.007-0.144-2.012-16.172-8.506-25.042 c-0.067-0.005-0.115-0.006-0.518,0.132c-0.125,0.17-0.312,0.399-0.445,0.567l-0.182-0.021c-3.335-1.455-6.09-4.159-9.896-4.607 c0.321,1.616,0.772,3.208,0.957,4.854c-0.211,0.041-0.476,0.104-0.683,0.146c-0.151-0.007-0.305-0.019-0.851-0.036 c-0.693-0.651-1.098-1.609-2.079-1.957c-0.82-0.055-1.663-0.108-2.547-0.272c-0.222-0.417-0.292-1.074-0.606-1.431 c-1.5-1.77-3.95-1.77-5.728-3.045c-1.975-1.42-0.612-4.22-2.344-5.734c-0.026-0.229-0.041-0.535-0.057-0.763 c0.365-0.187,0.78-0.619,0.931-0.995c-1.021-0.703-1.021-0.703-1.979-1.107c-1.596,0.411-1.596,0.411-4.384,0.562 c-0.257,0.317-0.713,0.679-1.092,0.837c-1.62-1.423-1.62-1.423-4.64-0.893c-0.117,0.2-0.258,0.475-0.366,0.675 c-1.011-0.048-2.037-0.089-3.202,0.429c-0.01,0.422-0.159,0.981-0.335,1.362c-0.902,0.205-1.881-0.055-2.741,0.437 c-0.107-0.003-0.208-0.007-0.703-0.09c-0.228-0.046-0.544-0.116-0.767-0.164c-0.014-0.001-0.017-0.001-0.529,0 c-1.693,0.029-2.068-0.29-2.733-0.884c-0.214-0.123-0.509-0.29-0.729-0.416c-0.628,1.112-0.112,2.37-0.46,3.517 c-1.198,0.085-1.212,0.085-2.203-0.034c0.154,1.073,0.298,2.163,0.429,3.253c-0.857-0.031-1.721-0.061-2.584,0.329 c-0.011,1.786-0.194,3.578-0.098,5.374c0.04,0.468,0.087,0.942,0.121,1.419c-0.714-0.027-1.43-0.05-2.14,0.303 c-0.117,2.424-1.881,3.068-2.922,3.229c-0.684,0.105-3.774,7.724-3.793,7.796c-0.199-0.014-0.479-0.033-0.684-0.052 c0,0,0,0-0.679,0.135c-0.196,0.124-0.456,0.293-0.675,0.418c0.276,4.189-0.27,4.405-1.91,5.032 c-0.083,0.204-0.179,0.479-0.249,0.687c0.01,0.499,0.014,0.995,0.417,1.555c2.938,0.55,2.938,0.55,3.236,1.116 c-0.79,1.586-0.79,1.586-0.795,6.924c-0.001,0.285-0.008,0.569-0.021,0.86c0.021,0.649,0.021,0.649-1.52,2.197 c0.07,1.022,0.464,1.979,0.633,2.979c-0.007,0.284-0.022,0.567-0.022,1.536c0,0.035,2.979,5.166,5.847,6.679 c-0.139,1.229-0.499,4.513,4.001,4.828c3.025,5.924,3.215,6.279,6,5.9c0.253-0.391,0.506-0.963,0.635-1.404 c0.917-0.381,1.895,0.059,2.816-0.18c0.159,0.006,0.288,0.01,0.438,0.014c0.621,0,0.621,0,2.162,0.037 c0.583,0.877,0.583,0.877,4.459,0.877c1.191-2.41,2.197-2.182,4.414-1.697c0.099,0.008,0.199,0.012,0.429-0.035 c0.028-0.021,1.876-1.945,3.463-0.641c0.249,3.271,0.249,3.271,1.576,3.859c1.734,0.084,3.418,0.176,5.062,0.27 c-0.137,0.834-0.268,1.678-0.434,2.619c-0.652,1.668-0.652,1.668-2.408,7.654c-0.375,0.107-0.84,0.459-1.029,0.797 c0.199,0.361,0.661,0.742,1.039,0.895c0.454,1.113-0.003,2.508,1.062,3.432c-0.365,3.453,1.526,6.965-0.288,10.379 c-0.087,0.25-0.178,0.502-0.438,1.354c-0.061,0.434,0.044,1.045,0.241,1.441l-5.235,8.646c-3.271,2.246-2.593,9.678-2.562,9.736 c-1.118,2.102-1.195,3.076-1.243,3.494c-0.64,1.117-1.294,2.227-2.054,3.494c-0.035,0.068-3.81,9.779-4.332,11.279 c-0.087,0.096-0.164,0.197-0.403,0.447c-1.205,0.617-1.205,0.617-1.498,1.527c0.11,0.01,0.228,0.016-0.037,0.457 c-0.147,0.17-0.345,0.393-0.492,0.568c0.037,0.209,0.077,0.506,0.117,0.721c0.532,0.041,1.052,0.076,2.039-0.012 c0.418-0.168,0.991-0.348,1.436-0.459c0.623,0.053,1.249,0.104,2.295-0.174c5.83-5.51,13.158-9.119,18.952-14.68l13.29-16.285 c0.194-0.361,0.377-0.721,0.857-1.617c0.183-0.389,0.408-0.916,0.547-1.324c0.715-1.436,1.425-2.891,2.101-4.516 c0.298-2.664,1.89-4.904,2.414-7.502c0.048-0.127,0.099-0.258,0.207-0.537c2.166-5.002,5.858-9.129,8.004-14.137 C253.112,149.361,253.112,149.361,254.003,142.787 M139.898,172.25c0-0.035-0.164-4.098-2.169-4.98 c-0.64-0.004-1.285-0.014-1.918-0.02c-3.024-0.914-3.024-0.914-3.294-2.705c-1.905-1.219-1.905-1.219-3.249-0.822 c-0.812-0.004-1.625-0.014-2.662-0.031c-2.595-1.043-2.595-1.043-3.346-0.734c0,0.209-0.01,0.49-0.01,0.705 c-0.546,0.328-0.849,0.506-2.146-0.168c-0.021-0.176-0.034-0.41-0.046-0.588c0.301-0.182,0.686-0.436,0.98-0.629 c-0.802-0.654-2.483-1.818-4.717-2.221c-0.134,0-0.279,0-0.911-0.234c-1-0.508-1.151-0.555-2.34-0.381 c0.024,0.633,0.046,1.268,0.059,1.9c-0.556-0.008-1.122-0.008-1.691-0.008c-0.003-0.26-0.013-0.531,0.031-1.104 c0.214-0.258,0.507-0.623,0.72-0.895c0.153-0.115,0.348-0.264,0.496-0.377c-0.092-0.168-0.229-0.385-0.331-0.547 c0,0-1.106-0.334-2.28-0.797h-0.449c-0.124,0-0.252,0-0.895,0.105c0.083,1.352,0.116,1.977-1.586,1.713 c-0.008-0.277-0.026-0.545,0.005-1.018l-0.036-0.605c0.707,0.029,0.911,0.037,1.723-0.33c0.463-2.303,0.06-3.23-0.094-3.582 c-0.355,0.004-0.824,0.004-1.183-0.014c-0.038-0.736-0.069-1.475-0.274-2.553c-0.19-0.746-0.646-1.375-0.901-2.088 c-2.11-0.508-2.304-1.08-2.489-1.635c-3.06-1.209-3.06-1.209-3.256-1.32c-1.036-0.512-2.028,0.164-3.053,0.107 c-0.221,0.004-0.44,0.004-0.716,0c-4.912-0.959-4.903-2.939-4.898-3.781c-1.935-1.027-1.935-1.027-2.564-1.42 c-0.01-0.144-0.01-0.281-0.553-0.488c-0.965-0.628-0.965-0.727-0.934-1.935c-0.129,0.003-0.266,0.003-0.7,0.073 c-0.587,0.179-1.14,0.44-1.738,0.572c-0.479-0.448-0.479-0.448-0.581-1.686c0.18-0.057,0.428-0.124,0.603-0.179 c0.036-0.169,0.072-0.391,0.098-0.563c-0.9-0.48-0.9-0.48-1.624-0.631l-0.857,0.743c-0.072,0.007-0.135,0.007-0.5-0.154 c-0.316-0.12-0.766-0.214-1.116-0.228c-0.525,0.6-0.628,1.442-1.116,2.065c-0.191,0-0.453-0.012-0.651-0.012 c-0.878-1.433-0.904-1.442-2.26-1.702c-0.646,0.01-1.291,0.017-2.151-0.074c-0.333-0.123-0.795-0.251-1.153-0.324 c-0.012-0.424-0.026-0.846-0.528-1.257c-0.913-0.263-1.639-0.934-2.569-1.159c-0.147,0.103-0.346,0.234-0.486,0.336 c-0.009,0.077-0.009,0.077-2.192,2.407c0.464,2.413,0.464,2.413,0.5,3.05c-0.131,0.12-0.305,0.277-0.429,0.395 c-0.608-1.018-2.37-4.509,0.509-6.893l-0.176-0.428c-0.282,0.008-0.542,0.013-0.995,0.063c-1.064,0.353-1.06,0.465-0.952,1.789 c-0.684,0.019-1.357,0.032-2.038,0.039c-2.407,1.676-2.407,1.676-3.703,1.684c0.041,0.817,0.082,1.634,0.048,2.551 c-0.447,0.482-0.447,0.482-1.577,0.841c-0.01,1.714-2.411,2.679-1.486,4.693c0.163,0.023,0.393,0.066,0.557,0.09 c0.108,1.711,2.242,3.582,0.373,5.119c-0.214,3.125-0.214,3.125-1.272,3.314c0.096,0.428,0.233,1.004,0.35,1.432 c-0.271,0.209-0.61,0.504-0.86,0.727c-0.01,0.258-0.031,0.6-0.041,0.848c-1.174,0.426-1.207,0.975-0.987,2.443 c-0.437,0.008-0.888,0.027-1.287,0.205c0.337,1.168,0.25,2.406,0.658,3.549c0.559,0.186,1.13-0.025,1.689,0.057 c0.044,0.256,0.101,0.521,0.133,0.834c-0.082,0.162-0.188,0.365-0.264,0.525c-0.329,0.09-0.733,0.328-0.968,0.574 c0.187,1.205-0.711,2.482,0.212,3.65c0.024,0.129,0.048,0.258,0.115,0.512c0.736,3.49,4.95,4.254,5.92,7.563 c0.072,0.287,0.146,0.572,0.255,0.914c0.875,1.145,1.112,2.668,2.216,3.674c2.131,1.945,2.054,6.662,6.095,6.127 c3.736-0.492,3.969,4.676,7.447,4.607c0.353,1.227,0.706,2.439,1.107,3.738c0.034,0.348,0.151,0.807,0.295,1.119l-0.018,0.172 c0.041,0.117,0.072,0.229,0.26,0.664c0.083,0.146,0.186,0.352,0.263,0.502c0.014,0.063,0.04,0.123,0.04,0.613 c0.036,0.361,0.165,0.832,0.306,1.158l-0.02,0.105c0.036,0.135,0.087,0.275,0.343,0.67c0.06,0.166,0.154,0.395,0.221,0.559 l0.06,0.191c0.042,0.107,0.076,0.219,0.069,0.848c0.125,0.342,0.38,0.756,0.6,1.041c0.041,0.109,0.075,0.225,0.116,0.326 c0.036,0.109,0.075,0.217,0.117,0.369c0.169,1.156-0.106,2.352,0.354,3.475c0.369,1.041,0.369,1.041,0.817,4.662 c0.029,0.061,0.075,0.125,0.286,0.486c2.376,3.9,3.174,5.225,2.635,7.098c0.086,0.18,0.189,0.369,0.484,0.811 c0.07,0.16,0.175,0.367,0.245,0.531c0.324,0.412,0.324,0.412,0.245,2.541c1.41,1.363,1.614,3.486,3.059,4.82 c1.014,0.875,0.732,2.592,2.121,3.217c0.2-0.006,0.402-0.01,0.61-0.012l-1.402-2.166c0.257-0.01,0.511-0.014,0.775-0.018 c0.158,0.242,0.319,0.486,0.489,0.764c-0.021,0.168-0.055,0.4-0.083,0.576c0.302,0.42,0.614,0.834,0.911,1.301 c0.008,0.088,0.008,0.088,1.527,2.461c-0.329-0.191-0.751-0.451-1.068-0.666l-0.17-0.221c-0.122-0.141-0.286-0.322-0.409-0.457 c0.036,0.035,0.059,0.078-0.178,0.121c0.175,0.227,0.356,0.451,0.705,0.705c0.958,0.635,0.958,0.635,1.689,1.504 c-0.54-0.182-0.982-0.563-1.527-0.744c0.187,0.221,0.379,0.434,0.394,0.686c0.031,0.17,0.069,0.398,0.077,0.563 c1.14,0.713,2.532,0.994,3.433,2.068c-0.314,0.074-0.716,0.305-0.938,0.539c0.038,0.033,0.074,0.07,0.494,0.422 c0.271,0.205,0.648,0.467,0.934,0.656c0.031,0.035,0.061,0.066,0.363,0.543c0.679,0.365,1.251,0.896,1.906,1.289l-0.078,0.195 l0.412,0.178c0.084,0,0.178-0.006,0.553,0.123c0.194,0.277,0.588,0.553,0.904,0.623l0.144,0.133l4.261,2.27 c0.062,0.053,0.116,0.107,0.332,0.248c0.765,0.234,0.775,0.244,1.694,0.445c0.041,0,0.087,0,0.593,0.148 c0.317-0.008,0.65-0.008,1.191-0.057c0.081-0.102,0.193-0.242,0.271-0.34c-0.641-0.328-0.757-0.387-1.664-0.477 c-0.124-0.121-0.247-0.24-0.839-0.385c0-0.006-0.85-0.613-1.835-1.434c-0.061-0.057-0.108-0.113-0.444-0.389 c-0.419-0.418-0.907-0.752-1.317-1.162c-0.057-0.066-0.114-0.127-0.412-0.369c-0.177-0.197-0.358-0.396-0.542-0.607 c-0.103-0.139-0.237-0.32-0.354-0.453c0.273-0.004,0.538-0.008,0.713-0.133c-0.235-0.254-0.516-0.633-0.688-0.943 c0.143-0.1,0.328-0.24,0.459-0.34c-0.139-0.361-0.33-0.854-0.459-1.225c0.106-0.135,0.213-0.336,0.307-0.479 c-0.094-0.137-0.2-0.277-0.708-0.461c-0.169-0.035-0.392-0.076-0.565-0.111c-1.81-1.223-1.81-1.223-2.033-1.496 c-0.041-0.07-0.088-0.145-0.175-0.609c0.113-0.133,0.255-0.318,0.363-0.459c0.393-0.004,0.775-0.008,1.167-0.014 c-0.261-0.416-0.516-0.832-0.734-1.631c-0.068-0.561-0.311-1.088-0.25-1.672c0.183,0.021,0.428,0.041,0.606,0.061 c0.026-0.174,0.059-0.393,0.09-0.566c-0.047-0.08-0.093-0.16-0.48-0.486h-0.01h-0.016l-0.008,0.004h-0.021h-0.012h-0.019h-0.018 l-0.077,0.035c-0.157,0.09-0.352,0.203-0.51,0.291c-0.367-0.254-0.367-0.254-1.112-1.314c-0.137-0.25-0.261-0.508-0.397-0.762 c0.133-0.004,0.253-0.004,0.458-0.004c0.356,0.141,0.818,0.359,1.143,0.555c0.472-0.004,0.931-0.016,1.401-0.02 c-0.086-0.145-0.201-0.348-0.287-0.5c-0.031-0.084-0.072-0.172-0.235-0.604c0.062-0.652,0.062-0.652-0.619-1.551 c-0.091-0.195-0.168-0.393-0.261-0.605c0.374,0,0.757-0.002,1.367-0.07c0.169-0.006,0.336-0.006,0.854-0.049 c0.152-0.068,0.377-0.154,0.547-0.225c0.404,0,0.813-0.01,1.367,0.02c0.164,0.029,0.383,0.07,0.558,0.102 c0.013-1.014,0.787-1.686,1.145-2.553l0.113-0.527c-0.093-0.281-0.175-0.559-0.252-0.842c-0.085,0-0.188,0-0.558-0.068 c-0.044-0.178-0.109-0.365-0.232-0.797c-0.626-0.793-1.737-1.029-2.283-1.928c0.363-0.006,0.72-0.006,1.176-0.006 c3.901,0.898,4.816,1.119,5.123-0.295c1.006-4.83,1.915-5.346,2.264-5.535c0.123,0.307,0.169,0.771,0.111,1.102 c0.179,0.033,0.401,0.084,0.571,0.119c0.547-0.723,1.304-2.631,1.304-2.641c0.119-1.047,1.522-1.059,1.674-2.076 c0.219-1.473-1.398-2.623-0.735-4.178c0.01-0.016,2.207-2.625,3.248-3.348c0.553,0,1.105,0.002,1.866-0.035 c0.494-0.391,0.494-0.391,1.272-1.195c1.391,0.006,2.774,0.016,4.172-0.111c0.033-0.332,0.201-0.77,0.396-1.033 c0.634-0.303,1.393-1.58,1.545-2.258c0.313-0.164,0.716-0.434,1.006-0.662c0.124-1.375,0.141-1.457,0.669-2.457 c0.382-0.232,0.382-0.232,0.955-3.242c0-0.115,0-0.24,0.223-0.822c0.594-1.162,0.624-1.963,0.645-2.299 c0-0.182,0.008-0.361-0.058-0.898c-0.03-0.166-0.068-0.385-0.106-0.555c0.017-0.275,0.021-0.549-0.067-1.158 c0.019-0.744,0.021-1.49,0.479-2.326c0.368-0.107,0.368-0.107,2.651-3.033c0.828-0.078,0.966-0.215,1.535-0.83l2.725-3.77 C139.853,172.996,139.853,172.996,139.898,172.25 M80.329,120.774l0.101-0.053c-0.209-0.214-0.611-0.088-0.759-0.422 c-0.191-0.42,0.066-0.832,0.02-1.239c-1.462,0.365-1.506,0.386-2.311,0.408c-0.243,0.004-0.505,0.009-0.761,0.011 c-0.397-0.083-0.716-0.382-1.123-0.414c-0.122,0.002-0.247,0.002-0.379,0.002c-0.335,0.124-0.443,0.538-0.8,0.655l-1.286,0.041 c-0.546-0.005-0.708-0.629-1.178-0.736c-0.583-0.126-0.899-0.792-1.545-0.817l-2.584-0.105c-0.42,0.018-0.42,0.018-1.405,0.237 c-0.021,0.864-0.047,1.728-0.054,2.592c0.707,0.918,1.178,1.42,1.418,1.483c0.229,0,0.474-0.003,0.782-0.012 c0.647,0.029,0.647,0.029,1.184-0.693c0.25-0.334,1.181-0.45,1.181-0.45c0.44-0.003,0.826,0.231,1.246,0.221 c0.434-0.005,0.83-0.232,1.258-0.221c1.334,0.023,2.702-0.3,2.875-0.381c0.322-0.149,0.445-0.149,0.762-0.008 c0.312,0.132,1.644,0.298,1.906,0.303c0.271,0,0.516-0.005,0.775-0.01C79.935,121.129,80.11,120.905,80.329,120.774 M60.722,122.034l0.077-0.131c-0.085-0.271,0.109-0.605-0.147-0.852c-0.175-0.167-0.408-0.072-0.604-0.158 c-0.229-0.094-0.373-0.318-0.605-0.423l-0.192-0.039c-0.675,0.015-1.334,0.032-1.987,0.051c0.126,0.25,0.205,0.526,0.34,0.778 l0.18,0.218c0.133,0.13,0.173,0.118,0.542,0.033c0.327-0.079,0.931,0.425,0.934,0.428c0.118,0.11,0.118,0.233,0.114,0.526 c-0.012,0.189,0.003,0.235,0.052,0.358c0.223-0.054,0.452,0.121,0.682-0.02C60.25,122.72,60.25,122.72,60.722,122.034 M58.756,117.106c1.736-0.041,3.515-0.083,5.313-0.118c-0.317-0.612-1.586-2.442-2.679-2.615 c-0.23,0.008-0.464,0.015-0.75,0.015c-0.751,0.005-1.491,0.361-2.244,0.007c-0.523-0.241-0.634-0.836-1.029-1.196 c-0.562-0.527-1.291-0.79-1.911-1.229c-0.722-0.48-0.722-0.48-0.821-0.821c-0.07-0.258-0.136-0.482-0.576-0.499 c-0.493,0.038-0.981,0.085-1.48,0.114c-0.314,0.019-0.314,0.019-0.68,0.346c-0.295,0.278-0.583-0.039-0.875-0.066 c-0.449,0.015-0.89,0.028-1.398,0.044c-1.194-0.036-1.194-0.036-1.369,0.132c-1.426,1.433,0.603,3.821,2.29,2.692 c0.425-0.283,0.647-0.79,1.14-0.991c0.076-0.033,0.792-0.044,1.196,0.046c0.016,0,1.344,0.523,1.46,1.382 c0.033,0.192,0.052,0.36,0.214,0.451c1.142,0.641,1.313,0.602,1.68,0.535c0.47-0.083,0.582,0.104,0.777,0.488 C57.115,116.027,57.67,117.042,58.756,117.106 M161.928,26.38c-0.17-0.312-0.345-0.621-0.517-0.929 c-0.166-0.15-0.27-0.353-0.487-0.459c-0.43-0.182-0.43-0.182-1.008-0.252c-0.385-0.94-0.385-0.94-0.718-1.443 c-0.342-0.012-0.682-0.024-1.039-0.029c-0.38,0.011-0.38,0.011-1.219,0.835c-0.489-0.052-0.959-0.244-1.463-0.259 c-0.857-0.027-1.092,0.192-1.235,0.334c-0.183,0.158-0.265,0.166-0.462,0.178c-0.296-0.006-0.603-0.012-0.894-0.019 c-0.058-0.151-0.121-0.3-0.188-0.452c-0.063-0.147-0.129-0.295-0.185-0.433c-0.137-0.196-0.368-0.281-0.532-0.448l-0.408,0.1 c0.062,0.147,0.122,0.288,0.188,0.43c-0.417-0.132-0.417-0.132-1.73-0.152c-0.151,0-1.303,0.246-0.358,1.217 c0.465-0.011,0.87-0.356,1.349-0.178l0.975,0.569c0.164,0.159,0.127,0.383,0.219,0.568c-0.477-0.095-1.374-0.279-2.395-0.054 c0.13,0.209,0.298,0.481,0.425,0.69c0.274-0.092,0.274-0.092,0.389-0.096c0.321,0.005,0.645,0.014,0.964,0.02l0.172,0.123 c0.109,0.304,0.222,0.618,0.327,0.936l0.413,0.486c0.166,0.004,0.319,0.007,0.497,0.011c0.472-0.026,0.947-0.102,1.428-0.083 c0.166,0,0.319,0.004,0.527,0.008c0.68-0.042,1.046,0.585,1.627,0.762c0.014,0.005,1.857,0.414,1.817-0.535 c-0.026-0.383-0.026-0.383,0.278-0.684c0.188-0.176,0.488,0.144,0.619-0.118c0.248-0.477,0.248-0.477,0.483-0.569 C160.143,26.312,160.143,26.312,161.928,26.38 M107.967,57.319l0.152-0.178c-0.036-0.192-0.087-0.466-0.122-0.666 c-0.782-0.023-0.782-0.023-1.035-0.167c-0.001-0.002-0.946-0.553-1.169-0.922c-0.117-0.198-0.182-0.319-0.372-0.381 c-0.439-0.159-0.921-0.055-1.37-0.159c-0.239-0.063-0.417-0.24-0.64-0.329c0.629-1.204,0.629-1.204,1.358-1.498 c0.123-0.055,0.639-0.683,0.363-1.107c-0.095-0.145-0.095-0.145-0.153-0.305c-0.157,0.029-0.327-0.035-0.495-0.04 c-0.068,0-0.73,0.175-0.916,0.363c-0.265,0.265-0.142,0.643-0.272,0.945C103,53.588,103,53.588,102.651,53.87 c-0.036,0.019-3.582,3.228-3.7,3.394c-0.106,0.132-0.322,0.443-0.444,0.957c-0.069,0.268,0.05,0.531,0.016,0.794 c1.685-0.012,3.388-0.018,5.109-0.018c0.437,0.04,0.624,0.098,1.041,0.65c0.746,0.959,1.122,1.146,1.609,1.376 c0.126-0.119,0.154-0.141,0.442-0.24c0.176-0.065,0.579-0.209,0.559-1.721C107.262,58.145,107.262,58.145,107.967,57.319 M94.348,55.274l0.046-0.047c-0.178-0.079-0.312-0.231-0.505-0.301c-0.108-0.043-0.293-0.034-0.354-0.028 c-0.358,0.029-0.399,0.031-0.546-0.039c-0.511-0.233-0.627-0.507-0.664-0.6c-0.123-0.286-0.235-0.334-0.409-0.334 c-0.158,0.001-0.321,0.06-0.479,0.027c-0.228,0.103-0.523,0.228-0.74,0.326c0.182,0.111,0.407,0.152,0.561,0.321 c0.158,0.166,0.142,0.407,0.262,0.584l0.123,0.13c0.152,0.141,0.32,0.269,0.464,0.424c0.132,0.128,0.219,0.304,0.35,0.433 c0.118,0.108,0.171,0.156,0.327,0.195C92.968,56.422,93.275,56.5,94.348,55.274 M138.62,4.017 c-0.365-0.084-0.75-0.077-1.118-0.128c-0.107-0.021-0.244-0.026-0.356-0.027l0,0h-0.01l0,0h-0.005l0,0h-0.006l0,0l0.025,0.049 c0.107,0.038,0.248,0.098,0.345,0.155c-0.228,0.001-0.261,0.001-0.554-0.067l-0.126,0.128h-0.013h-0.006h-0.006h-0.012h-0.007 h-0.011l0,0c0,0-0.01,0-0.108,0.142l0.099,0.16c-0.358-0.301-0.358-0.301-0.418-0.362c-0.077-0.036-0.168-0.067-0.347-0.189 c-0.283-0.085-0.313-0.092-0.534-0.125c-0.021,0-0.035,0-0.141,0.003l-0.178,0.036l0.178,0.126 c-0.113,0-0.258,0.004-0.365,0.022l-0.144-0.108h0.063l0.179-0.027c-0.326-0.063-0.326-0.063-0.633-0.04 c-0.129,0-0.248,0-0.452-0.012c-0.106,0.003-0.251,0.022-0.352,0.06h-0.007l0,0h-0.017l0,0l0,0h-0.008h-0.005l-0.089,0.015 h-0.005h-0.011l0,0l0,0h-0.01V3.828h-0.003l-0.037,0.013l-0.185,0.013l0.044-0.17c0.271,0.003,0.546,0.005,0.82-0.036 c0.221,0.005,0.438,0.01,0.713-0.041l0.179-0.019l-0.279-0.053h-0.139c0,0-0.012,0-0.115-0.005 c-0.246-0.016-0.496-0.054-0.743-0.074l0.02,0.006c-0.057,0-0.108,0-0.274-0.006l-0.204-0.018h-0.192h-0.052l-0.128-0.003 l-0.08,0.012l-0.31-0.005l-0.052-0.017l0.077-0.022c0.298,0.003,0.605,0.012,0.84,0.012c-0.106-0.012-0.254-0.025-0.368-0.025 l-0.097-0.005c-0.109-0.006-0.251-0.011-0.355-0.011h-0.08c-0.189-0.003-0.368-0.008-0.563-0.008l-0.09,0.008h-0.07 c0,0-0.019,0-0.198,0.059l-0.179-0.016c-0.059,0-0.115,0-0.253-0.026c-0.11,0-0.259,0-0.361,0.01c-0.01,0-0.027,0-0.166-0.003 h-0.196l-0.022,0.003h-0.028l-0.179,0.036v0.003l0.008,0.001l0.055,0.016v0.006v0.009l-0.082,0.062l-0.012-0.003l0.012-0.016 V3.501h-0.023h-0.02l-0.028-0.005l-0.013-0.001h-0.015l-0.01-0.009h-0.015l-0.005-0.013h-0.121l-0.03,0.013l-0.043,0.007 l-0.057,0.036v0.005l0.067,0.04l0.027,0.003l0.008,0.008h0.074h0.065l0.022,0.003l0.005,0.016l0.042,0.025l0.013,0.052v0.017 l-0.008,0.015l-0.023,0.02l-0.057,0.053l-0.087-0.016l-0.025-0.007l-0.102-0.023l-0.023-0.011h-0.019l-0.055-0.023l-0.166-0.05 l-0.014-0.005l-0.015-0.015l-0.003-0.006l-0.003-0.008l-0.03-0.015l0.013-0.028h-0.035l-0.01-0.006L129.4,3.566l-0.01-0.006 h-0.11c-0.122-0.013-0.281-0.025-0.405-0.006l-0.057,0.065h0.028l0.012,0.005l-0.033,0.038v0.011l-0.014,0.022l-0.04,0.05 l-0.023,0.015l-0.07,0.057l-0.04,0.031l-0.07-0.006h-0.037l-0.026-0.006l0.005-0.017l-0.015-0.011l0.015-0.02l-0.015-0.013 V3.761V3.746v-0.05l-0.003-0.003V3.684l0.003-0.04l-0.003-0.001l-0.068-0.008l0.01-0.006l0.039-0.023l0.019-0.013l-0.019-0.012 l-0.059-0.003h-0.089c-0.023,0.007-0.05,0.012-0.197,0.069l-0.164,0.07l-0.06,0.024l-0.052,0.018l-0.045,0.012l-0.295,0.098 l-0.07,0.022l-0.135-0.033c0.021-0.005,0.036-0.012,0.171-0.06l0.216-0.051l0.073-0.024l0.061-0.015l0.042-0.013l0.018-0.008 l0.05-0.033l0.023-0.015l0.043-0.009l0.131-0.042l0.003-0.007l0.015-0.01l0.008-0.009l-0.04-0.018l-0.121,0.018l-0.174,0.019 l-0.077,0.013l-0.058,0.005l-0.051,0.01h-0.012l-0.065,0.006l-0.056,0.01l-0.14,0.011l-0.012-0.006h-0.143l-0.044,0.006 L127.11,3.64l-0.141,0.015h-0.014h-0.178l-0.044,0.005l-0.042,0.005l-0.099,0.022l-0.062,0.008l-0.049,0.014l0.005,0.005 l0.041,0.002l0,0h0.003l0,0h0.012h0.003l0,0h0.003l0.013,0.005l-0.013,0.018l-0.033,0.019L126.46,3.77l-0.036,0.019l-0.06,0.026 l0.016,0.019l0.055-0.001h0.005h0.007l0,0h0.003l0,0h0.005h0.005h0.008v0.013l-0.036,0.035v0.008l-0.023,0.04l-0.083,0.019 l-0.13,0.006l-0.003-0.013h-0.011l-0.038-0.029l0.027-0.02l0.01-0.016l0.014-0.01l-0.054-0.02l-0.026-0.007h-0.027l-0.003-0.034 l0.022-0.033l0.036-0.013l0.039-0.017l0.057-0.021l0.02-0.008c0,0-0.02,0-0.184,0.008l-0.067,0.013l-0.054,0.006l-0.088,0.017 h-0.046l-0.214,0.031c-0.113,0.02-0.233,0.048-0.337,0.08l-0.041,0.016l-0.06,0.02l-0.063,0.021 c-0.188,0.054-0.395,0.118-0.583,0.178l-0.213-0.013l0.014-0.018l0.039-0.021l-0.32-0.005l-0.286,0.057 c-0.228,0.044-0.47,0.072-0.692,0.116c-0.109,0.028-0.257,0.056-0.353,0.081l-0.096,0.018l-0.185,0.005l-0.063,0.005h-0.036 l-0.106,0.028l-0.104,0.02l-0.106,0.016l-0.044,0.006l-0.126,0.04l-0.108,0.018h-0.026l-0.055,0.005 c-0.118,0.033-0.283,0.072-0.399,0.104l-0.098,0.03c-0.108,0.024-0.25,0.059-0.354,0.096l0.152,0.026l-0.036,0.029l-0.05,0.035 h0.068c0.096-0.006,0.24-0.018,0.347-0.035l0.062-0.009l0.154-0.005c-0.109,0.041-0.247,0.098-0.36,0.141l-0.055,0.038 l-0.072,0.028l-0.067,0.036c-0.122,0.054-0.25,0.103-0.495,0.211c-0.112,0.04-0.271,0.085-0.377,0.123l-0.12,0.036l-0.263,0.031 h-0.039c-0.118-0.022-0.214,0-0.409,0.052l-0.206,0.041c-0.06,0-0.132,0-0.352-0.028c-0.134-0.027-0.255,0-0.455,0.04 l-0.147,0.055c-0.041,0.013-0.089,0.031-0.195,0.075l-0.188,0.053l-0.086,0.019c-0.094,0-0.175,0.003-0.294,0.007l-0.18,0.048 c-0.23,0.05-0.466,0.022-0.694,0.055l-0.102,0.019l-0.093,0.009l-0.098,0.023l-0.123,0.04l-0.096,0.042l-0.108,0.041 l-0.122,0.044l-0.098,0.022l-0.25,0.01c-0.644,0.197-0.675,0.25-0.778,0.456l0.165,0.07L114.6,6.672 c0.157-0.003,0.327-0.003,0.5-0.003l0.015,0.089l0.045,0.012l-0.026,0.1l0.18,0.006c0.031,0,0.055,0,0.178-0.001l0.292-0.067 l0.111-0.025c0.098-0.001,0.199-0.003,0.438-0.031l0.18-0.024c0,0,0.038,0,0.143,0.01l0.052-0.002 c-0.116,0.062-0.23,0.129-0.399,0.224l-0.172,0.074l-0.104,0.031c-0.137,0.032-0.321,0.085-0.455,0.138h-0.059l-0.052,0.003 l-0.024-0.028h-0.074l0.007-0.038l-0.042-0.007h-0.111h-0.012h-0.001h-0.005h-0.011l0,0h-0.015l0,0c0,0-0.005,0-0.158,0.018 c-0.098,0.028-0.23,0.049-0.333,0.069h-0.077l-0.255-0.064l-0.091,0.003l-0.322,0.141c-0.101,0-0.211,0.005-0.324,0.007 c-0.253,0.065-0.253,0.065-0.423,0.25l-0.023,0.049c0.146,0.041,0.193,0.056,0.392,0.269l0.012,0.031l-0.181,0.007l-0.136,0.048 l-0.102,0.056l-0.039,0.059l0.081,0.055l-0.042,0.057l-0.031,0.053l-0.069,0.059l0.01,0.029l0.036,0.026l0.022,0.027 l0.081,0.083l0.036,0.03l-0.005,0.057l0.195,0.06h0.036l0.076-0.003l0.118-0.045l0.065-0.061l0.242-0.235 c0.01,0,0.036,0,0.143-0.001c0.106-0.001,0.249,0.028,0.356,0.055l0.026,0.027l0.041,0.016l0.02,0.029l0.083-0.013l0.157-0.12 h0.266l0.01,0.042c0.085,0.029,0.24,0.044,0.346,0.034l0.116-0.057l0.105-0.025l0.103-0.032l0.085-0.02h0.003h0.003h0.013h0.005 l0,0h0.008l0,0l0,0h0.007l0,0h0.008l0,0h0.007l0,0h0.003l0.087-0.012l0.117-0.06l0.253-0.079l0.136,0.12l0.031,0.026h0.185 l0.188,0.013h0.072l0.131,0.114l-0.003,0.056l0.048,0.028l0.059,0.013c0.152,0,0.302-0.001,0.442-0.001l0.057,0.018l0.144,0.114 l0.026,0.046l0.183,0.011l0.067-0.003h0.072V8.78l0.149,0.063c0.024,0,0.044,0,0.171,0.026l0.031,0.156 c-0.12,0.141-0.261,0.283-0.413,0.561V9.65l0.022,0.062l0.048,0.018h0.111l0.052,0.049l0.077,0.028l0.046,0.054l-0.041,0.195 l-0.041,0.063l0.051,0.194l0.041,0.061l-0.015,0.098l0.005,0.072l-0.017,0.331l-0.024,0.302l0.041,0.049l0.088,0.208l-0.078,0.1 c-0.174,0.149-0.195,0.171-0.157,0.499c-0.082,0.131-0.157,0.262-0.245,0.395c-0.303,0.203-0.303,0.203-0.394,0.381 c0.147,0,0.286,0,0.428,0c-0.051,0.11-0.129,0.217-0.294,0.317c-0.115,0.018-0.263,0.059-0.353,0.108 c-0.139,0.194-0.178,0.451-0.354,0.627c-0.116,0-0.234,0-0.348,0c-0.061,0.11-0.125,0.223-0.19,0.334l0.012,0.194 c0.106,0.039,0.24,0.08,0.356,0.09c0.056,0,0.119,0,0.354,0.042l0.178,0.045c0.327-0.003,0.639-0.003,0.998-0.062 c0.098-0.18,0.098-0.18,0.999-0.305c-0.08,0.38-0.198,0.857,0.523,0.877h0.01h0.008h0.013h0.015h0.015h0.004h0.023h0.036 c0.214,0.123,0.356,0.321,0.547,0.473l-0.011,0.173l-0.122,0.176c-0.129,0-0.262,0-0.466-0.005l-0.187-0.036h-0.412h-0.044 c-0.399,0.02-0.641,0.035-0.818-0.305c-1.421-0.143-1.575-0.046-1.578,0.394l0.271,0.285c-0.354,0.396-1.057,0.255-1.308,0.832 l0.103,0.159c0.833,0.088,0.833,0.088,1.143,0.566l0.208,0.042c0.695-0.478,0.695-0.478,1.478-0.464 c0.072-0.219,0.152-0.438,0.204-0.649c-0.259,0.007-0.531-0.034-0.788-0.057l-0.041-0.17c-0.111,0.001-0.258-0.016-0.365-0.042 l0.182-0.183c0.129,0,0.266,0,0.537,0.014c0.276,0.207,0.276,0.207,0.852,0.298h0.587c0.105,0.01,0.248,0.063,0.335,0.125 l0.024,0.198l-0.055,0.121c-0.24,0.103-0.379,0.347-0.581,0.489c-0.008,0.035-0.022,0.062-0.008,0.201 c0.245,0.288,0.245,0.288,0.28,0.473c-0.067,0.188-0.123,0.381-0.18,0.574c-0.204,0-0.403,0-0.761-0.055 c-0.288,0.093-0.497,0.369-0.833,0.348h-0.021c-0.081,0-0.17,0-0.329-0.044c-0.116-0.028-0.27-0.01-0.373,0.019 c-0.121,0.322-0.239,0.649-0.515,0.953c-0.108-0.023-0.246-0.081-0.357-0.126c-1.199,0.608-1.199,0.608-1.239,0.733 c-0.007,0.04-0.025,0.084-0.042,0.292c0.018,0.115,0.06,0.264,0.116,0.367c0.776,0.177,0.827,0.395,0.823,0.454 c-0.011,0.571-0.891,0.382-0.879,0.974l0.095,0.19c0,0,0.111,0.358,0.205,0.789c0.463,0.16,0.822-0.245,1.265-0.223 c0.081,0,0.163,0,0.362,0.039l0.09,0.165c-0.046,0.108-0.123,0.253-0.173,0.351c-0.085,0-0.163,0-0.332,0.033l-0.179,0.061 c-0.611,1.545-0.611,1.545-0.461,1.788c0.715,0.001,1.171-0.773,1.921-0.641c-0.072,0.305-0.149,0.617-0.329,1.021 c-0.274,0.257-0.698,0.25-0.979,0.479c-0.205,0.162,1.281,3.637,1.298,3.668c1.119,1.666,2.058,2.481,2.785,2.42 c0.098,0,0.198,0,0.413-0.033c0.249-0.124,0.249-0.124,0.631-0.16l0.182,0.002c0.196,0.05,0.382,0.063,0.569,0.115 c0.023,1.091,1.224,0.936,1.721,1.536c0.271,0.303,2.366,0.324,2.323-0.638c0-0.094,0.012-0.18,0.024-0.413 c0.106-1.208,2.112-2.388,0.833-3.493c-0.013-0.005-0.806-0.766,0.465-0.852c0.101,0,0.186,0,0.41-0.025 c0.234-0.042,0.234-0.042,0.591-0.032c0.449-0.762,0.449-0.762,1.148-1.255c0.003-0.401,0.006-0.794,0.15-1.289l0.125-0.134 c-0.032-0.641-0.228-0.808-0.48-1.029l0.038-0.188c0.394-0.243,0.903-0.053,1.288-0.353c0.258-0.204,0.054-0.502,0.13-0.741 c0.503,0.002,1.013,0.005,1.521,0.005c-0.069-0.491-0.069-0.535-0.022-0.816c0.276,0.006,0.558,0.006,0.846,0.099 c-0.023,0.607-0.017,0.623,0.115,0.825c0.777-0.079,1.333-0.648,2.027-0.942c0.07,0,0.155,0,0.284,0 c0.342,0.019,0.342,0.019,0.896-0.172l-0.031-0.196c0.229-0.439,0.692-0.664,0.971-1.05c0.279-0.108,0.279-0.108,0.532-0.675 c0.124-0.033,0.296-0.088,0.411-0.154c-0.01-0.065-0.028-0.136,0.032-0.307c0.48-0.411,0.48-0.411,0.345-0.947v-0.036 l0.077,0.005l0.199,0.026l0.057,0.023l0.063,0.031l0.051,0.008l0.132,0.084l0.059,0.019l0.134,0.115 c0.265,0.092,0.3,0.102,0.595,0.085c0.55-0.041,1.013,0.352,1.558,0.343c0.703-0.006,0.747-1.003,1.465-0.981 c0.5,0.021,0.919-0.391,1.431-0.303c0.737,0.113,0.449-1.005,1.036-1.179c0.34,0.006,0.685,0.013,1.094,0.02 c0.211-0.111,0.211-0.111,0.507-0.569l-0.089-0.166l-0.237-0.095l-0.248,0.274l-0.068,0.231l-0.189-0.008 c-0.047,0-0.094,0-0.195-0.008c-0.398-0.076-0.62-0.528-1.063-0.523c-0.062,0-0.127,0-0.312-0.005 c-1.267-0.055-1.496-0.457-1.608-0.655c-0.055-0.12-0.105-0.247-0.153-0.364c1.445-0.231,1.445-0.231,1.698-0.471 c0.623,0.238,0.724,1.125,1.483,1.202l0.134-0.13l0.05-0.324c0.349-0.157,0.75,0.056,1.102-0.139 c-0.467-0.649-1.233-0.901-1.817-1.405c-0.501-0.442-1.272-0.554-1.568-1.267l0.179-0.068c0.79,0.454,0.79,0.454,0.847,0.454 c0.064,0,0.121,0,0.325-0.034l0.19,0.029c-0.153-0.293-0.153-0.293-0.354-0.622c-0.026-0.05-0.077-0.105-0.157-0.319 c-0.045-0.205-0.623-0.756-1.242-0.254c-0.188-0.004-0.371-0.009-0.572-0.139l0.276-0.25c-0.07-0.067-0.07-0.067-0.675-0.302 l0.04-0.106c0.231,0.001,0.459,0.011,0.68,0.014c0.087,0.135,0.178,0.271,0.268,0.408c0.215,0.006,0.419,0.018,0.777-0.033 l0.106-0.163h0.183c0.063,0,0.119,0,0.323,0.034c0.37,0.148,0.37,0.148,0.591,0.06c0.155-0.975-1.301-0.558-1.859-0.97 l0.036-0.175c0.766,0.165,0.991,0.067,1.094,0.024l0.105-0.201l0.177,0.067l0.243,0.012c0.105,0.006,0.253-0.025,0.345-0.066 c-0.558-0.521-1.416-0.594-1.887-1.246c0.058-0.054,0.058-0.054,0.454-0.067c-0.116-0.124-0.239-0.247-0.494-0.469 c-0.378-0.183-0.378-0.183-0.549-0.321c0,0,0-0.009-0.134-0.115c-0.509-0.26-1.155-0.157-1.605-0.568l-0.068-0.068 c0.11-0.129,0.11-0.129,0.481-0.188c0.082,0,0.17,0,0.275,0.001c0.172,0.003,0.308,0.008,0.689,0.235 c0.02,0.015,0.04,0.034,0.127,0.157c0.124,0.216,0.143,0.245,0.736,0.612l0.098-0.055c-0.342-0.317-0.693-0.617-1.059-0.948 l-0.043-0.167l-0.099-0.074c-0.307-0.162-0.307-0.162-0.893-0.177c-0.057-0.001-0.124-0.001-0.241-0.014l-0.184-0.008 c-0.116-0.11-0.25-0.214-0.302-0.343l0.168,0.055l0.134,0.005l0.179-0.065c-0.249-0.154-1.113-0.411-1.404-0.257l0.074,0.18 c-0.147-0.053-0.323-0.109-0.597-0.452l-0.02-0.15c-0.349-0.255-0.349-0.255-0.586-0.447l0.281,0.008l-0.171-0.115l-0.007-0.176 c0.03,0,0.063,0-0.015-0.1c-0.461-0.226-0.471-0.269-0.537-0.487l0.182-0.043l-0.169-0.088l-0.026-0.177l-0.204-0.065 c-0.204-0.01-0.412-0.015-0.623-0.023l-0.164-0.14c0.107,0.019,0.262,0.051,0.361,0.063l0.154-0.051l-0.313-0.183l0.125-0.086 C138.887,4.086,138.74,4.051,138.62,4.017 M126.565,3.586c0.116-0.021,0.234-0.041,0.356-0.067l-0.322,0.026l-0.075-0.012 l0.341-0.048l0.242-0.046l-0.305,0.016l-0.17,0.002l-0.479,0.033l0.418-0.046l-0.26,0.008l0.299-0.025l-0.023-0.005 l-0.227,0.005c-0.173,0.01-0.352,0.025-0.537,0.033l0.322-0.024l-0.281,0.015c-0.169,0.004-0.332,0.022-0.496,0.022l0.179-0.013 l-0.671,0.032c-0.098,0.005-0.233,0.019-0.332,0.027l-0.072,0.003l0.216-0.025c-0.419,0.029-0.961,0.053-1.369,0.075 l-0.725,0.065l0.197-0.009c-0.413,0.055-0.805,0.178-1.226,0.173c0.149-0.029,0.301-0.046,0.436-0.074l-0.134-0.014 c0.263-0.029,0.523-0.06,0.798-0.088L122.39,3.64l0.231-0.018l-0.373,0.018c-0.397,0.043-0.814,0.082-1.212,0.125l-0.122,0.006 l0.216-0.036l-0.076,0.003c-0.353,0.031-0.698,0.072-1.051,0.105l-0.087,0.001h-0.096l-0.641,0.083l-0.104-0.008l-0.706,0.097 l-0.036,0.014l-0.082,0.021l-0.916,0.136c-0.249,0.134-0.519,0.113-0.774,0.167l0.122,0.007l-0.098,0.075l0.973-0.165 l0.566-0.085l0.369-0.033l-0.78,0.111l-0.96,0.162l-0.805,0.169c0.5,0.006,0.5,0.006,1.726-0.212l0.134,0.023 c0.117-0.003,0.229-0.014,0.341-0.014l0.84-0.137l0.688-0.108c0.424-0.067,0.844-0.109,1.269-0.167l0.095,0.013l-0.211,0.012 c-0.525,0.075-1.047,0.152-1.568,0.232l0.366-0.013l0.017,0.013l0.063,0.009l-0.552,0.11c-0.103,0.003-0.216,0.005-0.313,0.005 l-0.322,0.019l-0.409,0.06c-0.306,0.029-0.618,0.081-0.92,0.111l-0.187,0.005l-0.295,0.036 c-0.219,0.047-0.444,0.098-0.658,0.146l0.065,0.027l-0.249,0.089l-0.557,0.166l0.205,0.057L115.2,5.115l-0.199-0.01 c0.755-0.319,0.755-0.319,0.869-0.4L115.747,4.7l-0.23-0.028l-0.796,0.169l-0.461,0.144l-0.577,0.201l-0.649,0.283l-0.147,0.123 l0.29,0.05c-0.306,0.08-0.634,0.108-0.939,0.208c-0.256,0.082-0.517,0.166-0.763,0.252l0.619-0.343l-0.112-0.049l-0.518,0.054 l-0.475,0.069l-0.761,0.152c-0.257,0.081-0.511,0.163-0.766,0.24l-0.533,0.18l0.082,0.061c0.147-0.008,0.299-0.008,0.438-0.02 l0.506-0.053l-0.955,0.216l-0.626,0.258c0.285,0.055,0.285,0.055,1.964-0.382l-0.949,0.309l-1.054,0.276l-0.465,0.044 l0.016-0.216l0.157-0.216c-0.152,0.014-0.305,0.026-0.451,0.041c-1.633,0.645-1.633,0.645-2.344,0.761l-0.934,0.295l-0.736,0.41 l-0.053,0.182c0.292-0.064,0.692-0.132,0.982-0.236c0.018,0.012,0.018,0.012,1.314-0.052l0.044,0.109 c0.221,0.026,0.44-0.073,0.666-0.106c0.133-0.002,0.26-0.005,0.301,0.047c-0.522,0.231-0.522,0.231-0.581,0.306 c0.163,0.008,0.234,0.016,0.54-0.06c0.103-0.004,0.214-0.004,0.322-0.011c1.702-0.438,1.702-0.438,2.218-0.643l0.526-0.29 l-0.806,0.193l0.746-0.385l0.576-0.086l0.942-0.355l0.602-0.3l0.284-0.005c0.719,0.033,1.3-0.42,1.97-0.585 c0.118-0.003,0.239-0.003,0.428-0.003c0.031,0,0.376,0,0.715-0.32l-0.036-0.11h-0.119l-0.656,0.139l-0.559,0.125l0.517-0.196 c0.519-0.1,1.032-0.221,1.542-0.333l0.281-0.005l-0.317,0.142c0.271,0.055,0.271,0.055,1.472-0.197l0.351-0.218l0.42-0.022 l-0.327,0.148l0.353-0.021l0.663-0.106l0.553-0.223l0.028-0.077c0.134,0,0.271-0.003,0.4-0.003l0.246-0.006l0.567-0.131 l0.526-0.068c0.761-0.143,1.519-0.254,2.273-0.399l0.307-0.018l0.397-0.062l0.24-0.09c-0.195,0.031-0.195,0.031-1.171,0.074 l0.475-0.089l0.424-0.04h0.282c0.098-0.007,0.186-0.007,0.345-0.019c0.295-0.031,0.59-0.05,0.893-0.086 C126.116,3.663,126.116,3.663,126.565,3.586 M112.399,5.501c0.346-0.093,0.682-0.183,1.025-0.276 c0.087-0.118,0.087-0.118,0.185-0.161l0.623-0.158c0.178-0.044,0.377-0.088,0.56-0.128l0.307-0.098 c-0.203,0.036-0.407,0.077-0.61,0.106c0.008,0,1.024-0.3,1.914-0.464c0.434-0.079,0.88-0.115,1.308-0.242 c-0.42,0.041-0.737,0.093-0.896,0.111h0.116c-0.733,0.118-0.742,0.118-0.839,0.118l-0.203,0.009 c-0.518,0.069-1.023,0.18-1.524,0.274l-0.116-0.014l-0.274,0.041l-1.013,0.191l-0.607,0.107 c-0.329,0.061-0.649,0.129-0.973,0.196l0.083,0.009c-0.348,0.075-0.684,0.156-1.027,0.233l-0.417,0.137l0.356-0.045l0.522-0.082 l0.354-0.031c-0.757,0.218-0.757,0.218-1.269,0.291l-0.26,0.011l-0.647,0.129l-0.43,0.172l-0.906,0.291l0.049,0.115l0.613-0.081 l0.003,0.095l0.703-0.187h0.161c0.081-0.014,0.139-0.026,0.735-0.216l0.824-0.232l-0.159,0.115c0.864-0.2,0.864-0.2,0.893-0.2 l0.003,0.046C111.648,5.676,111.717,5.671,112.399,5.501 M104.75,7.455c0.444,0.003,1.354-0.423,1.656-0.563l-0.738,0.118 l-1.213,0.365L104.75,7.455 M104.566,9.688h0.019l0.838-0.507l-0.3-0.194l-0.388-0.164l-1.002,0.232l-1.266,0.244l-0.655,0.079 l-0.379-0.133L100.785,9.3l0.594-0.443l1.007-0.444l0.83-0.393c-0.173,0.006-0.358,0.014-0.53,0.026 c-0.389,0.055-0.929,0.132-3.016,1.241l-1.369,0.519l-0.571,0.386l-0.368,0.387l0.854-0.096 c0.265-0.083,0.622-0.193,0.886-0.272c-0.131,0.133-0.252,0.274-0.376,0.413l0.005,0.038c0.069,0.021,0.175,0.04,0.736-0.033 c0.312-0.01,0.634-0.021,0.948-0.032l0.687-0.151l0.634-0.245l-0.186,0.263c1.658-0.142,1.658-0.142,2.129-0.429 C103.888,9.907,104.035,9.808,104.566,9.688 M93.643,10.881c0.106-0.006,0.221-0.013,0.331-0.019l0.549-0.3L93.643,10.881 M96.525,10.397l1.179-0.505l0.251-0.245l0.646-0.34l-0.446,0.076l-1.047,0.275l-0.845,0.326l-0.658,0.427 c0.118-0.007,0.238-0.014,0.363-0.019l-0.106,0.188L96.525,10.397 M100.574,8.592l1.037-0.325l0.658-0.255l0.538-0.29 c-0.123,0.012-0.25,0.016-0.375,0.021l0.17-0.122l-0.567,0.094l-1.053,0.356l-0.409,0.267l-0.332,0.249L100.574,8.592 M104.928,7.084c0.242-0.082,0.498-0.164,0.748-0.247c-0.137,0.007-0.266,0.013-0.394,0.021 c-0.123,0.005-0.239,0.012-0.356,0.015l-0.89,0.23c-0.209,0.069-0.425,0.136-0.625,0.209l0.51-0.052l0.469-0.088L104.928,7.084 M105.934,6.603l0.69-0.188l0.648-0.251l-0.216-0.027l0.685-0.242l-0.706,0.154l-0.767,0.231l-1.348,0.411l0.059,0.055 l0.439-0.062L105.934,6.603L105.934,6.603z M110.077,5.282l0.562-0.096l1.099-0.237l0.203-0.058l-0.146,0.009 c-0.347,0.065-0.687,0.134-1.018,0.197l0.175-0.002L110.077,5.282 M103.402,7.014l0.806-0.221l0.936-0.284l0.489-0.168 l0.919-0.257l0.295-0.115l0.422-0.134l-0.328,0.047l0.547-0.153l0.505-0.146l-0.312,0.049l-0.877,0.15l-0.799,0.191l0.23-0.031 l-0.3,0.096l-1.008,0.26l-0.224,0.014l-0.868,0.25l0.238-0.04l-0.489,0.161l0.582-0.132l0.056,0.018l0.173,0.028l-0.965,0.344 L103.402,7.014 M102.087,7.213l0.533-0.115l0.547-0.208l-0.369,0.046l-0.874,0.265L102.087,7.213L102.087,7.213z M98.872,8.776 c0.155-0.059,0.984-0.389,1.039-0.528c-0.063,0.005-0.19,0.033-0.767,0.216l0.608-0.327l-0.293,0.02 c-1.917,0.883-1.975,0.883-2.072,0.885l-0.026-0.028l0.01-0.02l1.164-0.542l-0.276,0.017l-0.953,0.352l-0.977,0.391l0.557-0.319 l1.491-0.578l0.334-0.229l-1.447,0.492c-0.605,0.242-1.191,0.545-1.79,0.817l-0.149,0.197l0.564-0.146l0.348-0.072l-0.557,0.278 l-1.274,0.585l0.608-0.183l0.435-0.042l0.409-0.084l0.878-0.354c0.417-0.177,0.826-0.342,1.254-0.509 C98.285,8.958,98.587,8.877,98.872,8.776 M93.836,9.95c0.379-0.146,0.368-0.214,0.368-0.217h-0.011 c-0.219,0.024-0.397,0.167-0.623,0.189l-0.828,0.358C93.167,10.213,93.167,10.213,93.836,9.95 M99.405,7.823l0.593-0.141 l1.265-0.434l0.547-0.211C100.96,7.272,100.355,7.455,99.405,7.823 M93.537,21.255l1.071-0.733l0.322-0.753 c-1.393,0.086-1.393,0.086-1.5,0.117c-0.072,0.023-0.535,0.26-1.455,0.852l-0.209,0.661l0.72,0.083L93.537,21.255 M94.219,12.092c1.426-0.607,1.426-0.607,1.426-0.785l-0.039-0.006c-0.152,0.003-0.317,0.011-0.484,0.018l-0.04-0.192 c-0.795,0.075-0.795,0.075-0.97,0.155c-1.286,0.622-1.286,0.622-1.786,0.766c-0.623,0.312-1.227,0.633-1.823,0.958 c-0.573,0.345-1.13,0.696-1.697,1.041l0.758-0.151l1.006-0.381l1.035-0.56l0.291,0.133l0.962-0.366L94.219,12.092 M86.817,14.717l1.405-0.684l0.725-0.515l0.544-0.463l0.232-0.293C91.17,12.3,91.17,12.3,92.06,11.631l0.438-0.284l-0.451,0.054 l-0.896,0.41l-0.165,0.007l0.07-0.168L90.4,11.819l-0.783,0.404l-0.624,0.442c-1.593,0.739-1.593,0.739-1.758,0.729 c0.059-0.044,0.124-0.124,0.523-0.412l-0.348,0.05l-0.915,0.442l-0.343,0.348l-0.259,0.262l0.085,0.167 c-1.222,0.844-1.222,0.844-1.144,1.078c0.102-0.028,0.22-0.065,1.262-0.535L86.817,14.717 M86.884,12.9l1.309-0.586l0.384-0.249 l-0.214-0.142c-0.276,0.1-0.647,0.207-0.893,0.344l-0.561,0.398c-0.041,0.035-0.188,0.126-0.89,0.563L86.884,12.9 M86.817,12.445l0.925-0.386l-0.319,0.059l-0.718,0.27L86.817,12.445L86.817,12.445z M102.883,6.584 c0.66-0.163,0.66-0.163,1.254-0.353l-0.294,0.041l-0.537,0.108l-1.252,0.287l0.184-0.018l0.264-0.024 c0.115-0.007,0.223-0.019,0.339-0.03L102.883,6.584 M100.785,7.119l0.908-0.228l-0.144,0.01l-0.303,0.027l-0.533,0.109 l-0.879,0.218l-1.538,0.459l-0.054,0.041l0.5-0.121l0.366-0.049l0.782-0.216l0.692-0.216L100.785,7.119 M99.415,7.313 l0.072,0.006l1.175-0.322l0.408-0.127l-0.201,0.031l-0.888,0.245L99.415,7.313L99.415,7.313z M93.086,9.984l1.884-0.682 l0.535-0.238l-0.187,0.012l-0.806,0.285l0.199-0.139l0.864-0.377c0.288-0.104,0.583-0.202,0.874-0.299l0.955-0.337l-0.212,0.022 l-0.711,0.208l-0.413,0.099l-0.696,0.231c-0.525,0.227-0.525,0.227-1.883,0.698l0.039,0.053 c-0.668,0.263-0.711,0.268-0.95,0.292c-0.108,0.012-0.214,0.022-0.315,0.029l0.51-0.243l1.231-0.48l0.322-0.168l-0.188,0.021 l0.45-0.188l0.06-0.047l-0.77,0.201l-1.41,0.448l-1.03,0.325l-1.145,0.378l-1.08,0.401l0.208-0.001l-0.104,0.11l0.409-0.095 l0.653-0.183l0.048,0.092l0.252-0.023c-0.373,0.12-0.571,0.185-0.834,0.233l-0.294,0.026l-0.716,0.231l-0.759,0.312 l-0.271,0.163c0.127-0.016,0.26-0.024,0.395-0.036l1.19-0.356l1.302-0.441l0.477-0.091c0.131-0.014,0.27-0.022,0.408-0.036 c0.146-0.014,0.291-0.021,0.433-0.036L93.086,9.984 M95.751,8.399l0.093,0.036l0.896-0.29c-0.301,0.063-0.358,0.075-0.391,0.069 l0.113-0.036L95.751,8.399 M90.301,10.044l1.953-0.661l-0.681,0.188l-1.212,0.399L90.301,10.044L90.301,10.044z M96.816,8.007 L98.1,7.648l0.234-0.109L97.28,7.825l-0.23,0.032c-0.118-0.026-3.691,1.051-3.729,1.065l-0.17,0.02l-0.807,0.235l-1.079,0.369 L90.798,9.74l1.032-0.332l-0.626,0.237l0.663-0.205l0.767-0.257l0.234-0.048l1.157-0.367l0.866-0.25l-1.107,0.369l0.478-0.13 l0.739-0.198L96.816,8.007 M79.443,17.91l0.775-0.434l0.294-0.434l-0.058-0.451l0.884-0.733l1.395-0.751l0.505-0.446L85,13.716 l0.957-0.585l0.264-0.316c-0.127,0.007-0.255,0.019-0.376,0.028c-0.469,0.226-0.939,0.448-1.398,0.672L83.541,14l-1.104,0.651 l-0.694,0.307l-0.093-0.029l0.395-0.286l0.934-0.495l0.716-0.401l1.039-0.62l-0.195-0.02l-0.85,0.437l-0.636,0.356 c-0.111,0.012-0.219,0.017-0.327,0.031l-0.688,0.329l-0.44,0.109l0.818-0.382l1.001-0.454l-0.131-0.019l0.152-0.18l-0.343,0.067 l-0.972,0.451l-0.038-0.065l0.664-0.287l1.147-0.544l0.14-0.108l-0.286,0.035l-1.051,0.411l-0.627,0.225l-0.59,0.185 l-1.006,0.398l-1.163,0.576l-1.125,0.459l-0.698,0.348l0.181-0.025l-0.563,0.333l0.663-0.244l0.482-0.123l-0.559,0.367 l-0.746,0.262l-0.624,0.214l-0.817,0.374l-0.393,0.367c0.134-0.01,0.257-0.028,0.382-0.042l0.615-0.134 c0.132-0.017,0.26-0.031,0.365,0c-0.311,0.331-0.311,0.331-1.064,0.713l-0.617,0.027c-0.204,0.02-0.408,0.043-0.607,0.06 l-1.238,0.521l-1.414,0.948l0.396-0.007c0.128-0.011,0.271-0.026,0.415-0.039l-1.292,0.92l-0.344,0.381 c0.198-0.019,0.396-0.039,0.607-0.055l0.669-0.106l1.11-0.489l0.837-0.285l1.224-0.533l0.715-0.304l-0.326,0.319l0.441-0.115 l-0.307,0.64l0.459,0.015l0.636-0.129l1.151-0.654l0.418-0.504l0.378-0.065L79.443,17.91 M73.856,20.088l1.013-0.654 l-1.238,0.401l-1.654,0.711l0.199,0.167l1.033-0.443L73.856,20.088L73.856,20.088z M83.155,13.034l0.955-0.313l1.099-0.489 l1.039-0.552l-0.033-0.05l-0.975,0.327l0.368-0.224l0.476-0.252l-0.087-0.036l-0.631,0.175c-0.31,0.121-0.615,0.244-0.917,0.363 l-1.636,0.679l-2.518,1.075l-3.451,1.528l-0.536,0.365l-2.066,1.125l1.438-0.669l0.283-0.042l1.042-0.463 c1.708-0.814,4.377-1.923,4.397-1.928L83.155,13.034 M104.438,50.182l0.806-0.634l-0.638-0.618l0.643-0.622l0.363-1.308 l-1.671-0.226l-0.147-0.765c-0.624,0.007-1.244,0.007-1.854,0.013l-1.652,0.775l-1.117,0.623l-0.728-0.302l0.58-0.924 l1.813-0.547l2.11-0.459l1.071-0.752l-1.265-0.072l-1.095-0.591l-1.518-0.425l-0.736-0.881l-0.852-0.872l-0.188-0.79l0.72-0.148 l0.42-0.577l-0.583-1.335l-0.679-1.45l-0.67-2.501l-0.059-1.119l-1.85,1.477c-0.188,0.423-0.365,0.852-0.555,1.282l-1.514,0.5 l-1.215,0.905l-1.199-0.044l0.109-0.826l-0.514-0.61l-1.324,0.292l1.035-1.433c0.32-0.624,0.643-1.245,0.958-1.854l0.463-0.973 l-1.328-0.044l-0.643-0.691l-0.348-0.996l-0.954-1.032l-0.904,0.508L86.402,30.1l-0.303-0.361 c-0.506,0.012-1.007,0.02-1.496,0.036l-1.099,0.699l-0.149,1.002l-1.145,1.356l-0.42,0.916l-0.276,1.246 c-0.279,0.005-0.553,0.015-0.822,0.02l-0.708,1.223l-0.951,0.692l0.404,0.537l0.571,0.872l-0.588,1.619 c-0.331,0.615-0.663,1.244-0.992,1.876l-1.524,1.339l-1.693,1.064l-1.72,0.26l0.065,1.634c-0.36,0.71-0.7,1.431-1.048,2.151 l-0.116,1.239L71.66,50.54l-1.307,1.3l-1.727,0.269l-0.077-1.798l-0.332-1.53c0.214-0.445,0.443-0.88,0.665-1.315l0.654-1.825 l1.016-1.51l-1.715-0.232l-1.318-0.033l-0.394-0.5l-1.34-0.463l-0.065-0.852l-0.732-0.893l-0.682-0.946l-2.156,0.638 l0.271-0.912l0.888-2.082l-0.367-0.518l0.144-0.793l2.267-2.501l2.361-1.861l2.207-1.621l1.479-0.602l1.518-0.835l0.497-0.843 l-0.833-0.314l-0.679-0.538l1.186,0.235l0.854,0.366l0.751-0.204l0.991-0.893l0.62,0.429l0.799-0.204l0.716-0.701l0.689-0.312 l1.119-0.927l-0.644-0.091l-0.834-0.074l0.183-0.497l-0.44-0.524l0.647,0.028l0.72,0.351l0.434,0.312l1.123-0.37l1.379-0.847 l0.116-0.638c0.258-0.01,0.511-0.019,0.777-0.024l-0.143,0.583l-1.052,0.679l-1.586,1.25c-0.488,0.514-0.983,1.04-1.469,1.572 l-1.164,0.387l-0.425,0.704l0.843,0.034c-0.193,0.224-0.389,0.441,0.059,0.72c0.208-0.066,0.478-0.156,0.687-0.219l1.069-0.848 l1.13,0.017l0.538,0.106l0.365,0.338c0.319-0.006,0.641-0.021,0.974-0.031l0.829-0.895l-0.773-0.212l0.516-1.095l-1.011-0.085 l-0.057-0.829l-0.578-0.205c0.206-0.208,0.405-0.414,0.612-0.618l0.558,0.146l0.752-0.455l0.393-0.496 c0.293-0.005,0.567-0.018,0.859-0.029l1.021-0.716l1.493-0.718l0.843-0.588l0.194-0.61l0.694-1.013l0.884-0.167l1.021-0.749 l0.28-0.711l-0.293-0.36l-0.218-0.535c0.341-0.012,0.677-0.022,1.02-0.029l0.557-0.368l0.64,0.069l0.116,0.397l0.911-0.069 l0.99-0.206l0.143-0.67l0.598-0.146l-0.193,0.759l0.694,0.068l-0.447,0.744l0.457,0.129l-0.207,0.569l0.388,0.278l-0.317,0.73 l0.537,0.281l0.015,0.752l-0.622,0.929l-1.825,1.03l-1.692,1.049l-0.315,0.998l-1.749,0.253l-0.637-0.209 c-0.294,0.01-0.579,0.013-0.872,0.02l-1.768,0.879c-0.249,0.302-0.496,0.607-0.75,0.921l1.119,0.212l1.11-0.093l0.666-0.521 l0.692-0.306l0.561,0.163l1.001,0.375l0.393,1.277l-0.185,0.709l0.234,0.906c0.384-0.008,0.782-0.015,1.181-0.021l0.552,1.218 l1.875,0.036l0.97,0.543l0.5-0.75l-1.189-1.513l-0.456-0.653l0.023-0.713l0.91,0.64l1.607,1.128l0.854,0.66 c0.188-0.372,0.364-0.739,0.556-1.103l1.161-0.971l-0.775-0.578l0.572-1.458l-1.148-0.498l-0.531-1.768l0.874-0.496l0.831-0.442 l1.176,1.613l0.206,1.063l0.893,0.16l0.981-1.241l1.456-0.458l0.444-0.489c0.255-0.006,0.537-0.006,0.808-0.006l0.628-0.546 l0.362-0.797c-0.519,0.007-1.041,0.008-1.568,0.015c0.088-0.139,0.165-0.281,0.25-0.425l-0.517-0.665l-0.574-0.1l-0.689-0.393 c-0.246,0-0.493,0.005-0.733,0.012l0.18-0.558l0.101-0.494c-0.399,0.005-0.804,0.017-1.207,0.02l-0.442-0.038 c0.212-0.286,0.416-0.558,0.646-0.836c0.272,0,0.548-0.008,0.826-0.008l0.736-0.389l-0.88-0.265l0.409-0.329l0.599-0.103 l-0.149-0.542l-0.627-0.213l0.765-0.505l-0.521-0.329l-0.962,0.054l0.259-0.393l-0.687-0.031l-0.2-0.081l0.995-0.397 l-0.524-0.233l-1.262,0.264l0.125-0.652l0.358-0.366l-0.521-0.032l0.499-0.438l-0.478-0.298 c-0.374,0.008-0.754,0.017-1.123,0.033l-0.63,0.356l-0.684,0.095l-0.374-0.105l-0.785,0.444l-0.598,0.057l0.753-0.564 l1.059-0.52l0.513-0.669l0.725-0.583c-0.302,0.012-0.6,0.014-0.893,0.022l-1.126,0.452l-0.663,0.059l-0.899,0.313l-1.092,0.619 l-0.665,0.67l-0.929,0.451L93.58,14.89l-0.583,0.1l0.483-0.737l1.305-0.975l0.949-0.631l1.483-0.651l1.45-0.536 c-0.261,0.008-0.521,0.013-0.776,0.026l-1.025,0.139l-2.043,0.768l-2.32,1.121l-2.323,1.451l0.5,0.149l0.475,0.026l-0.583,0.557 l-0.434-0.108l-0.961,0.24l-0.466,0.7c0.266-0.009,0.522-0.018,0.787-0.026l0.633-0.199l-0.064,0.443l0.525,0.372l-0.945,0.255 l-0.867,0.665L88.666,18.5l-2.324,1.361l-1.476,0.982l-1.444,0.802l-0.173-0.302l0.963-1.165l1.232-0.717l0.409-1.053 l-1.807,0.866l0.98-1.462l-0.085-0.178l1.13-0.741l1.057-0.814l-0.283-0.072l0.976-0.66l0.537-0.698l-0.669-0.007l-0.819,0.429 l-0.397,0.056l-1.467,0.714l-0.736,0.577l-0.805,0.459l-0.535,0.764l-0.142,0.496l-1.217,0.729l-0.414-0.161l-0.965,0.831 l0.687-0.077l1.481-0.629c-0.408,0.294-0.799,0.597-1.186,0.898l-2.422,0.968l-1.604,1.36l0.142-0.707l1.419-0.939 c-0.163,0.007-0.315,0.014-0.469,0.022l1.115-0.851c0.143-0.01,0.295-0.017,0.438-0.027l1.583-1.22l0.047-0.663l-1.478,0.867 l-1.097,0.418l-0.426,0.901l-1.213,0.578l-1.143,0.735l-1.852,0.198l-0.031-0.519l-0.368-0.116l0.378-0.71l-1.297,0.591 L71.228,21.3l-1.086,0.875l-2.036,1.419l1.856-1.64l0.219-0.571l-1.171,0.378l-1.014-0.167l0.699-0.477l1.125-0.461l0.704-0.792 l-0.497,0.098l0.394-0.72l0.863-0.607l-0.137-0.086l-0.312,0.084l-1.037,0.553l-0.455,0.182l1.971-1.184l-2.007,1.09 l0.041-0.106l2.358-1.364l0.261-0.191l-1.733,0.917l-1.176,0.622l-0.418,0.194l-0.979,0.504l-1.3,0.729l1.876-1.064l0.679-0.349 l0.662-0.336l0.924-0.495l0.106-0.072l-0.988,0.494l-1.336,0.711l-0.175,0.093l-0.055,0.023 c-3.469,2.03-7.944,4.997-11.296,7.206c-5.291,3.784-5.291,3.784-14.848,12.435l-1.635,1.626l0.288-0.281l-0.564,0.6 l-0.918,0.978l-0.268,0.355l-0.919,0.966l-0.429,0.588l-0.848,0.91l-0.204,0.326l0.01,0.103l-0.915,1.06l-0.852,1.104 l-1.053,1.295l-0.936,1.234l0.106,0.094l-1.099,1.479l-0.812,1.366l-0.683,1.034l-0.275,0.748l-0.052,0.5l0.014,0.35 l-0.508,0.815l-0.31,1l-0.271,0.863l-1.091,1.993c-0.326,0.536-0.666,1.079-0.993,1.619l0.368-0.988l0.558-1.302l0.479-0.84 l0.203-0.766v-0.3l0.855-1.32l-0.247,0.055l0.255-0.625l0.07-0.294v-0.204l-0.294,0.208l-0.595,1.04l-0.234,0.608l-0.375,0.868 l-0.474,1.405l-0.818,1.577l-1.035,2.028l-0.973,1.655l-1.312,2.288c-0.464,0.854-0.916,1.719-1.362,2.583l-0.512,0.658 c-0.292,0.576-0.571,1.153-0.865,1.73l-0.62,1.778l-0.883,1.764l-0.546,1.387l-0.324,1.171l-0.767,1.8l-0.324,1.469 l-0.082,1.169l-0.695,2.563l-0.011,1.012l-0.361,1.343l-0.147,1.521c0.182-0.024,0.357-0.048,0.535-0.072l0.082,1.022 l0.384,0.809l0.087,1.339l-0.31,1.671l-0.175,1.67l-0.345,2.789l0.191,1.172l0.275,1.366l-0.041,1.008l-0.628,0.968l0.102,1.103 l0.403,1.069l0.567,1.176l0.269,1.313l-0.249,1.15l0.05,0.931l0.566,0.571l0.476,1.205l0.335,1.023l-0.085,1.256l0.408-0.444 l0.237-1.385l-0.106-1.553l-0.507-0.585l0.082-1.357l-0.497-1.083v-1.736l0.015-1.637l-0.332-1.192l0.141-1.62l-0.422-0.467 l0.104-1.994l-0.195-1.66l0.454-2.213l0.472-0.137l0.499,0.628l0.111,1.172l-0.384,1.914l0.237,2.472l0.438,1.974l0.511,1.382 l0.317,1.41l-0.098,1.645l0.705,0.97l0.429,1.529l0.304,1.642l0.831,2.249l0.245,1.997l0.505,0.908l-0.617,0.794l-0.24,1.289 l1.111,1.861l0.973,1.546l1.256,0.677l1.337,1.444l1.626,1.207l1.875,1.519l1.565,0.682l1.022-0.157l0.315-0.885l1.173-0.27 l1.325,1.023l1.519,1.77l0.857,1.481c0.414-0.018,0.833-0.034,1.252-0.049c0.161-0.006,0.326-0.014,0.488-0.021l0.726,0.403 l0.836,1.582l1.62,0.692l0.03-1.075l0.912,0.613c2.886,5.086,2.886,5.086,2.715,6.11l0.595,0.837l0.658-0.442l0.961,0.593 c1.997,2.27,1.997,2.27,2.892,2.149l2.525,1.504l1.364,0.703l-0.23-1.674l0.564-1.079l2.327,0.153l0.33,1.045l0.749-0.113 l0.322-1.389l-0.929-1.256c-0.808,0.027-1.615,0.044-2.407,0.058l-1.557-0.063l-2.268-0.147l-1.094-0.921l-1.532-1.972 l-0.018-1.613c-0.029-0.708-0.065-1.418-0.085-2.138l0.388-2.71c-0.013-0.608-0.026-1.215-0.029-1.829l-0.726-1.391 l-1.403-0.939l-2.061,0.284l-1.435-0.387l-1.554,0.925l-1.023-0.931l0.946-1.125c0-0.293,0-0.583,0-0.881 c0.009-0.354,0.009-0.711,0.018-1.074l0.386-1.214l0.564-1.957c0.027-0.718,0.061-1.439,0.097-2.161l0.927-0.878l0.23-1.613 l-0.633-0.608l-2.213,0.292l-1.373,0.36l-0.664,1.525l-0.658,2.275l-0.701,2.075l-1.125,0.261l-1.572,0.716l-1.606,0.401 l-0.692-1.487l-1.25-1.008l-0.379-1.703l-0.75-2.203l-0.204-3.794l0.067-2.731l0.854-2.134l0.613-2.408l-0.263-2.446 l1.471-2.411l0.961-0.147l1.156-1.261l1.215-1.468l1.318,0.242l0.905,0.461l0.898-0.542l0.471,1.286 c0.401-0.016,0.816-0.034,1.238-0.048l0.989-0.142l-0.05-1l0.626-1.635l1.57-0.149l1.119-0.238l1.999,0.212l0.576,1.395 c0.225-0.008,0.456-0.012,0.685-0.021l0.576-0.826l0.633-0.224l0.803,1.188l0.715,1.488c-0.082,0.583-0.163,1.164-0.237,1.748 l0.412,1.003l0.106,1.126l0.612,0.812l0.257,1.224l0.816,0.593l-0.054,1.346l0.785,0.296l0.582-0.944l0.537-1.475l-0.286-1.734 l-0.17-2.655l-0.73-2.318c0.144-1.015,0.298-2.026,0.617-3.527c0.208-0.485,0.5-1.131,0.722-1.613l1.251-2.22l1.47-0.715 l1.912-1.717l1.769-1.3l1.604-0.716l0.492-1.26l1.297-0.801l-0.567-2.085l-0.516-0.937l0.569-1.14l-0.415-1.028l1.281-0.684 l0.631,1.489l0.91-1.525l0.941-1.318l0.917-0.857l1.408-2.78c0.729-0.012,1.462-0.026,2.202-0.044l1.619-0.929l1.708-0.211 l-0.16-1.085l0.47-2.245l1.572-1.703c0.433-0.009,0.878-0.013,1.316-0.024l0.67-0.977l1.728,0.064l1.824-0.982l1.323-1.323 c2.989-0.105,2.989-0.105,3.964,0.474c-0.184,0.136-0.423,0.307-0.601,0.448c-0.748,0.005-1.493,0.017-2.396,0.136 c-1.522,1.009-1.522,1.009-1.583,2.271l0.858,0.434l1.24-0.898l0.878-0.537l1.564-0.461l1.745-0.79l1.645-0.368l1.539-1.49 l1.43-1.035l0.408-1.188l-1.738,0.425l-1.511,1.81l-1.927,0.101l-1.378-0.75l-1.293-1.27l-0.281-2.194l1.68-1.097l0.379-1.734 l-1.976-0.146l-2.366,0.682l-2.805,1.45l-3.001,2.395l-2.216,1.394l1.093-1.289l1.496-1.38l0.92-0.677l-1.635-0.471 c0.746-0.018,1.5-0.031,2.262-0.039l0.909-1.176l1.583-1.092l1.529-0.092l1.028-1.324l1.41-0.499 c0.664-0.001,1.334-0.013,2-0.018l3.68-0.118l1.815,0.313l1.518-0.099l1.747-1.06l1.676-1.438l2.493-0.252L104.438,50.182"/></defs><clipPath id="SVGID_2_"><use overflow="visible" xlink:href="#SVGID_1_"/></clipPath><g clip-path="url(#SVGID_2_)"><g><path fill="none" stroke="#4E4E4E" stroke-miterlimit="10" stroke-width=".77" d="M36.53,37.356 c-63.32,59.867-63.32,119.731,0,179.6"/><path fill="none" stroke="#4E4E4E" stroke-miterlimit="10" stroke-width=".77" d="M38.469,35.581 c-62.028,61.05-62.028,122.101,0,183.149"/><path fill="none" stroke="#4E4E4E" stroke-miterlimit="10" stroke-width=".77" d="M40.408,33.839 c-60.737,62.21-60.737,124.42,0,186.631"/><path fill="none" stroke="#4E4E4E" stroke-miterlimit="10" stroke-width=".77" d="M42.346,32.136 c-59.445,63.346-59.445,126.692,0,190.038"/><path fill="none" stroke="#4E4E4E" stroke-miterlimit="10" stroke-width=".77" d="M44.285,30.468 c-58.151,64.457-58.151,128.917,0,193.374"/><path fill="none" stroke="#4E4E4E" stroke-miterlimit="10" stroke-width=".77" d="M46.223,28.838 c-56.858,65.545-56.858,131.087,0,196.634"/><path fill="none" stroke="#4E4E4E" stroke-miterlimit="10" stroke-width=".77" d="M48.16,27.246 c-55.568,66.605-55.568,133.212,0,199.818"/><path fill="none" stroke="#4E4E4E" stroke-miterlimit="10" stroke-width=".77" d="M50.1,25.688 c-54.276,67.646-54.276,135.291,0,202.933"/><path fill="none" stroke="#4E4E4E" stroke-miterlimit="10" stroke-width=".77" d="M52.039,24.169 c-52.984,68.657-52.984,137.314,0,205.973"/><path fill="none" stroke="#4E4E4E" stroke-miterlimit="10" stroke-width=".77" d="M53.977,22.683 c-51.69,69.649-51.69,139.295,0,208.941"/><path fill="none" stroke="#4E4E4E" stroke-miterlimit="10" stroke-width=".77" d="M55.916,21.237 c-50.397,70.611-50.397,141.223,0,211.836"/><path fill="none" stroke="#4E4E4E" stroke-miterlimit="10" stroke-width=".77" d="M57.854,19.826 c-49.105,71.553-49.105,143.107,0,214.658"/><path fill="none" stroke="#4E4E4E" stroke-miterlimit="10" stroke-width=".77" d="M59.792,18.454 c-47.813,72.467-47.813,144.935,0,217.405"/><path fill="none" stroke="#4E4E4E" stroke-miterlimit="10" stroke-width=".77" d="M61.729,17.116 c-46.522,73.359-46.522,146.721,0,220.079"/><path fill="none" stroke="#4E4E4E" stroke-miterlimit="10" stroke-width=".77" d="M63.667,15.815 c-45.229,74.226-45.229,148.452,0,222.678"/><path fill="none" stroke="#4E4E4E" stroke-miterlimit="10" stroke-width=".77" d="M65.608,14.55 c-43.938,75.07-43.938,150.139,0,225.209"/><path fill="none" stroke="#4E4E4E" stroke-miterlimit="10" stroke-width=".77" d="M67.546,13.323 c-42.643,75.887-42.643,151.774,0,227.665"/><path fill="none" stroke="#4E4E4E" stroke-miterlimit="10" stroke-width=".77" d="M69.483,12.134 c-41.353,76.68-41.353,153.361,0,230.043"/><path fill="none" stroke="#4E4E4E" stroke-miterlimit="10" stroke-width=".77" d="M71.422,10.98 c-40.061,77.45-40.061,154.902,0,232.352"/><path fill="none" stroke="#4E4E4E" stroke-miterlimit="10" stroke-width=".77" d="M73.36,9.863 c-38.768,78.196-38.768,156.393,0,234.588"/><path fill="none" stroke="#4E4E4E" stroke-miterlimit="10" stroke-width=".77" d="M75.299,8.782 c-37.476,78.916-37.476,157.829,0,236.749"/><path fill="none" stroke="#4E4E4E" stroke-miterlimit="10" stroke-width=".77" d="M77.237,7.738 c-36.183,79.611-36.183,159.223,0,238.834"/><path fill="none" stroke="#4E4E4E" stroke-miterlimit="10" stroke-width=".77" d="M79.178,6.729 c-34.889,80.284-34.889,160.569,0,240.85"/><path fill="none" stroke="#4E4E4E" stroke-miterlimit="10" stroke-width=".77" d="M81.114,5.76 c-33.599,80.932-33.599,161.861,0,242.791"/><path fill="none" stroke="#4E4E4E" stroke-miterlimit="10" stroke-width=".77" d="M83.052,4.826 c-32.306,81.553-32.306,163.104,0,244.658"/><path fill="none" stroke="#4E4E4E" stroke-miterlimit="10" stroke-width=".77" d="M84.992,3.928 c-31.015,82.151-31.015,164.304,0,246.457"/><path fill="none" stroke="#4E4E4E" stroke-miterlimit="10" stroke-width=".77" d="M86.93,3.067 c-29.722,82.725-29.722,165.448,0,248.176"/><path fill="none" stroke="#4E4E4E" stroke-miterlimit="10" stroke-width=".77" d="M88.868,2.243 c-28.429,83.275-28.429,166.551,0,249.825"/><path fill="none" stroke="#4E4E4E" stroke-miterlimit="10" stroke-width=".77" d="M90.806,1.455 c-27.137,83.8-27.137,167.6,0,251.4"/><path fill="none" stroke="#4E4E4E" stroke-miterlimit="10" stroke-width=".77" d="M92.745,0.703 c-25.845,84.301-25.845,168.603,0,252.904"/><path fill="none" stroke="#4E4E4E" stroke-miterlimit="10" stroke-width=".77" d="M94.682-0.01 c-24.554,84.778-24.554,169.554,0,254.332"/><path fill="none" stroke="#4E4E4E" stroke-miterlimit="10" stroke-width=".77" d="M96.622-0.688 c-23.26,85.229-23.26,170.457,0,255.686"/><path fill="none" stroke="#4E4E4E" stroke-miterlimit="10" stroke-width=".77" d="M98.561-1.329 c-21.969,85.656-21.969,171.313,0,256.969"/><path fill="none" stroke="#4E4E4E" stroke-miterlimit="10" stroke-width=".77" d="M100.499-1.934 c-20.675,86.06-20.675,172.117,0,258.18"/><path fill="none" stroke="#4E4E4E" stroke-miterlimit="10" stroke-width=".77" d="M102.436-2.501 c-19.385,86.438-19.385,172.876,0,259.313"/><path fill="none" stroke="#4E4E4E" stroke-miterlimit="10" stroke-width=".77" d="M104.375-3.033 c-18.09,86.792-18.09,173.583,0,260.376"/><path fill="none" stroke="#4E4E4E" stroke-miterlimit="10" stroke-width=".77" d="M106.313-3.526 c-16.801,87.122-16.801,174.245,0,261.366"/><path fill="none" stroke="#4E4E4E" stroke-miterlimit="10" stroke-width=".77" d="M108.251-3.986 c-15.506,87.427-15.506,174.854,0,262.28"/><path fill="none" stroke="#4E4E4E" stroke-miterlimit="10" stroke-width=".77" d="M110.191-4.408 c-14.213,87.708-14.213,175.417,0,263.124"/><path fill="none" stroke="#4E4E4E" stroke-miterlimit="10" stroke-width=".77" d="M112.13-4.791 c-12.922,87.963-12.922,175.927,0,263.892"/><path fill="none" stroke="#4E4E4E" stroke-miterlimit="10" stroke-width=".77" d="M114.068-5.139 c-11.629,88.197-11.629,176.395,0,264.59"/><path fill="none" stroke="#4E4E4E" stroke-miterlimit="10" stroke-width=".77" d="M116.005-5.451 c-10.338,88.404-10.338,176.81,0,265.212"/><path fill="none" stroke="#4E4E4E" stroke-miterlimit="10" stroke-width=".77" d="M117.943-5.726 c-9.044,88.588-9.044,177.175,0,265.761"/><path fill="none" stroke="#4E4E4E" stroke-miterlimit="10" stroke-width=".77" d="M119.884-5.964 c-7.752,88.745-7.752,177.493,0,266.237"/><path fill="none" stroke="#4E4E4E" stroke-miterlimit="10" stroke-width=".77" d="M121.821-6.166 c-6.462,88.88-6.462,177.761,0,266.64"/><path fill="none" stroke="#4E4E4E" stroke-miterlimit="10" stroke-width=".77" d="M123.759-6.33 c-5.168,88.99-5.168,177.98,0,266.97"/><path fill="none" stroke="#4E4E4E" stroke-miterlimit="10" stroke-width=".77" d="M125.698-6.458 c-3.877,89.077-3.877,178.152,0,267.229"/><path fill="none" stroke="#4E4E4E" stroke-miterlimit="10" stroke-width=".77" d="M127.634-6.55 c-2.585,89.137-2.585,178.272,0,267.409"/><path fill="none" stroke="#4E4E4E" stroke-miterlimit="10" stroke-width=".77" d="M129.574-6.604 c-1.292,89.173-1.292,178.344,0,267.52"/><path fill="none" stroke="#4E4E4E" stroke-miterlimit="10" stroke-width=".77" d="M131.511-6.624 c0,89.186,0,178.37,0,267.557"/><path fill="none" stroke="#4E4E4E" stroke-miterlimit="10" stroke-width=".77" d="M133.451-6.604 c1.292,89.173,1.292,178.344,0,267.52"/><path fill="none" stroke="#4E4E4E" stroke-miterlimit="10" stroke-width=".77" d="M135.389-6.55 c2.584,89.137,2.584,178.272,0,267.409"/><path fill="none" stroke="#4E4E4E" stroke-miterlimit="10" stroke-width=".77" d="M137.328-6.458 c3.878,89.077,3.878,178.152,0,267.229"/><path fill="none" stroke="#4E4E4E" stroke-miterlimit="10" stroke-width=".77" d="M139.265-6.33 c5.169,88.99,5.169,177.98,0,266.97"/><path fill="none" stroke="#4E4E4E" stroke-miterlimit="10" stroke-width=".77" d="M141.206-6.166 c6.463,88.88,6.463,177.761,0,266.64"/><path fill="none" stroke="#4E4E4E" stroke-miterlimit="10" stroke-width=".77" d="M143.142-5.964 c7.753,88.745,7.753,177.493,0,266.237"/><path fill="none" stroke="#4E4E4E" stroke-miterlimit="10" stroke-width=".77" d="M145.081-5.726 c9.045,88.588,9.045,177.175,0,265.761"/><path fill="none" stroke="#4E4E4E" stroke-miterlimit="10" stroke-width=".77" d="M147.019-5.451 c10.337,88.404,10.337,176.81,0,265.212"/><path fill="none" stroke="#4E4E4E" stroke-miterlimit="10" stroke-width=".77" d="M148.96-5.139 c11.629,88.197,11.629,176.395,0,264.59"/><path fill="none" stroke="#4E4E4E" stroke-miterlimit="10" stroke-width=".77" d="M150.895-4.791 c12.922,87.963,12.922,175.927,0,263.892"/><path fill="none" stroke="#4E4E4E" stroke-miterlimit="10" stroke-width=".77" d="M152.836-4.406 c14.216,87.709,14.216,175.416,0,263.123"/><path fill="none" stroke="#4E4E4E" stroke-miterlimit="10" stroke-width=".77" d="M154.775-3.986 c15.508,87.427,15.508,174.854,0,262.28"/><path fill="none" stroke="#4E4E4E" stroke-miterlimit="10" stroke-width=".77" d="M156.709-3.526 c16.799,87.122,16.799,174.245,0,261.37"/><path fill="none" stroke="#4E4E4E" stroke-miterlimit="10" stroke-width=".77" d="M158.65-3.033 c18.092,86.792,18.092,173.583,0,260.376"/><path fill="none" stroke="#4E4E4E" stroke-miterlimit="10" stroke-width=".77" d="M160.589-2.501 c19.385,86.438,19.385,172.876,0,259.313"/><path fill="none" stroke="#4E4E4E" stroke-miterlimit="10" stroke-width=".77" d="M162.528-1.932 c20.675,86.058,20.675,172.117,0,258.176"/><path fill="none" stroke="#4E4E4E" stroke-miterlimit="10" stroke-width=".77" d="M164.466-1.329 c21.967,85.656,21.967,171.311,0,256.969"/><path fill="none" stroke="#4E4E4E" stroke-miterlimit="10" stroke-width=".77" d="M166.405-0.688 c23.259,85.229,23.259,170.455,0,255.686"/><path fill="none" stroke="#4E4E4E" stroke-miterlimit="10" stroke-width=".77" d="M168.342-0.01 c24.552,84.776,24.552,169.554,0,254.332"/><path fill="none" stroke="#4E4E4E" stroke-miterlimit="10" stroke-width=".77" d="M170.281,0.705 c25.847,84.301,25.847,168.602,0,252.902"/><path fill="none" stroke="#4E4E4E" stroke-miterlimit="10" stroke-width=".77" d="M172.219,1.456 c27.139,83.8,27.139,167.6,0,251.399"/><path fill="none" stroke="#4E4E4E" stroke-miterlimit="10" stroke-width=".77" d="M174.158,2.243 c28.431,83.274,28.431,166.547,0,249.825"/><path fill="none" stroke="#4E4E4E" stroke-miterlimit="10" stroke-width=".77" d="M176.095,3.067 c29.72,82.725,29.72,165.448,0,248.178"/><path fill="none" stroke="#4E4E4E" stroke-miterlimit="10" stroke-width=".77" d="M178.034,3.928 c31.014,82.151,31.014,164.304,0,246.457"/><path fill="none" stroke="#4E4E4E" stroke-miterlimit="10" stroke-width=".77" d="M179.972,4.826 c32.306,81.553,32.306,163.107,0,244.662"/><path fill="none" stroke="#4E4E4E" stroke-miterlimit="10" stroke-width=".77" d="M181.912,5.76 c33.602,80.932,33.602,161.861,0,242.791"/><path fill="none" stroke="#4E4E4E" stroke-miterlimit="10" stroke-width=".77" d="M183.848,6.729 c34.893,80.284,34.893,160.569,0,240.85"/><path fill="none" stroke="#4E4E4E" stroke-miterlimit="10" stroke-width=".77" d="M185.787,7.738 c36.184,79.611,36.184,159.221,0,238.834"/><path fill="none" stroke="#4E4E4E" stroke-miterlimit="10" stroke-width=".77" d="M187.725,8.782 c37.476,78.916,37.476,157.829,0,236.745"/><path fill="none" stroke="#4E4E4E" stroke-miterlimit="10" stroke-width=".77" d="M189.664,9.863 c38.765,78.196,38.765,156.393,0,234.588"/><path fill="none" stroke="#4E4E4E" stroke-miterlimit="10" stroke-width=".77" d="M191.601,10.98 c40.061,77.45,40.061,154.902,0,232.352"/><path fill="none" stroke="#4E4E4E" stroke-miterlimit="10" stroke-width=".77" d="M193.543,12.136 c41.354,76.68,41.354,153.364,0,230.042"/><path fill="none" stroke="#4E4E4E" stroke-miterlimit="10" stroke-width=".77" d="M195.481,13.325 c42.646,75.887,42.646,151.772,0,227.659"/><path fill="none" stroke="#4E4E4E" stroke-miterlimit="10" stroke-width=".77" d="M197.417,14.55 c43.937,75.07,43.937,150.139,0,225.209"/><path fill="none" stroke="#4E4E4E" stroke-miterlimit="10" stroke-width=".77" d="M199.354,15.815 c45.229,74.228,45.229,148.454,0,222.678"/><path fill="none" stroke="#4E4E4E" stroke-miterlimit="10" stroke-width=".77" d="M201.292,17.115 c46.523,73.361,46.523,146.721,0,220.08"/><path fill="none" stroke="#4E4E4E" stroke-miterlimit="10" stroke-width=".77" d="M203.234,18.454 c47.813,72.467,47.813,144.935,0,217.401"/><path fill="none" stroke="#4E4E4E" stroke-miterlimit="10" stroke-width=".77" d="M205.172,19.828 c49.105,71.553,49.105,143.105,0,214.656"/><path fill="none" stroke="#4E4E4E" stroke-miterlimit="10" stroke-width=".77" d="M207.111,21.239 c50.397,70.611,50.397,141.224,0,211.835"/><path fill="none" stroke="#4E4E4E" stroke-miterlimit="10" stroke-width=".77" d="M209.049,22.685 c51.689,69.647,51.689,139.295,0,208.939"/><path fill="none" stroke="#4E4E4E" stroke-miterlimit="10" stroke-width=".77" d="M210.986,24.168 c52.983,68.659,52.983,137.314,0,205.974"/><path fill="none" stroke="#4E4E4E" stroke-miterlimit="10" stroke-width=".77" d="M212.924,25.688 c54.275,67.646,54.275,135.291,0,202.933"/><path fill="none" stroke="#4E4E4E" stroke-miterlimit="10" stroke-width=".77" d="M214.864,27.248 c55.569,66.606,55.569,133.211,0,199.816"/><path fill="none" stroke="#4E4E4E" stroke-miterlimit="10" stroke-width=".77" d="M216.802,28.839 c56.861,65.544,56.861,131.086,0,196.633"/><path fill="none" stroke="#4E4E4E" stroke-miterlimit="10" stroke-width=".77" d="M218.741,30.47 c58.153,64.457,58.153,128.915,0,193.372"/><path fill="none" stroke="#4E4E4E" stroke-miterlimit="10" stroke-width=".77" d="M220.678,32.136 c59.444,63.346,59.444,126.692,0,190.038"/><path fill="none" stroke="#4E4E4E" stroke-miterlimit="10" stroke-width=".77" d="M222.619,33.841 c60.736,62.21,60.736,124.42,0,186.631"/><path fill="none" stroke="#4E4E4E" stroke-miterlimit="10" stroke-width=".77" d="M224.553,35.579 c62.029,61.051,62.029,122.102,0,183.153"/><path fill="none" stroke="#4E4E4E" stroke-miterlimit="10" stroke-width=".77" d="M226.494,37.358 c63.32,59.866,63.32,119.729,0,179.595"/></g></g></g></g><g opacity=".55"><radialGradient id="SVGID_3_" cx="292.614" cy="-123.884" r="8.91" gradientTransform="matrix(1 0 0 -1 -155.8701 3.8301)" gradientUnits="userSpaceOnUse"><stop offset="0" style="stop-color:#fff"/><stop offset=".867" style="stop-color:#b9e4ec"/><stop offset="1" style="stop-color:#aee0ea"/></radialGradient><path fill="url(#SVGID_3_)" d="M136.189,132.536c-0.931-0.389-1.885-0.76-2.844-1.123 c2.064-4.847,3.731-9.87,4.973-15.035C138.079,121.862,137.352,127.267,136.189,132.536z" enable-background="new" opacity=".5"/></g></g></svg>