<svg xmlns="http://www.w3.org/2000/svg" xmlns:xlink="http://www.w3.org/1999/xlink" id="Layer_1" width="188.009" height="130.03" x="0" y="0" enable-background="new 0 0 188.009 130.03" version="1.1" viewBox="0 0 188.009 130.03" xml:space="preserve"><g><path fill="#57BA52" d="M16.199,0h9.275l4.452,29.885C31.389,16.666,32.691,6.704,33.836,0h7.384l-6.277,36.749h-9.751 l-4.344-26.454l-4.344,26.454H6.751L0.453,0h7.384c1.144,6.704,2.447,16.666,3.91,29.885L16.199,0z"/><path fill="#57BA52" d="M50.78,29.95h12.163v6.798H43.482V0h19.461v6.798H50.78v8.167h10.122v6.819H50.78V29.95z"/><path fill="#57BA52" d="M65.923,0h15.182c1.477,0,2.75,0.485,3.823,1.455c1.071,0.985,1.607,2.172,1.607,3.562v7.58 c0,2.215-0.796,4.025-2.389,5.43c2.186,1.448,3.279,3.489,3.279,6.125v3.41c0,2.81-1.072,5.068-3.214,6.776 c-2.013,1.607-4.525,2.411-7.537,2.411H65.923V0z M73.221,6.798v8.167h3.367c0.709,0,1.325-0.225,1.846-0.673 c0.536-0.478,0.804-1.042,0.804-1.694V6.798H73.221z M73.221,29.95h3.454c2.302,0,3.454-0.795,3.454-2.389v-3.41 c0-0.666-0.261-1.23-0.782-1.694c-0.522-0.448-1.13-0.674-1.825-0.674h-4.3V29.95z"/><path fill="#57BA52" d="M96.465,6.798h-7.124V0h21.501v6.798h-7.102v29.951h-7.275V6.798z"/><path fill="#57BA52" d="M128.245,0c1.461,0,2.722,0.485,3.778,1.455c1.071,0.985,1.607,2.172,1.607,3.562v26.715 c0,1.391-0.536,2.578-1.607,3.563c-1.057,0.97-2.317,1.455-3.778,1.455h-10.729c-1.464,0-2.724-0.485-3.781-1.455 c-1.07-0.985-1.604-2.172-1.604-3.563V5.017c0-1.39,0.534-2.577,1.604-3.562C114.792,0.485,116.052,0,117.516,0H128.245z M119.426,6.798V29.95h6.907V6.798H119.426z"/><path fill="#57BA52" d="M154.311,0c1.464,0,2.723,0.485,3.78,1.455c1.071,0.985,1.606,2.172,1.606,3.562v26.715 c0,1.391-0.535,2.578-1.606,3.563c-1.058,0.97-2.316,1.455-3.78,1.455h-10.729c-1.462,0-2.721-0.485-3.778-1.455 c-1.071-0.985-1.607-2.172-1.607-3.563V5.017c0-1.39,0.536-2.577,1.607-3.562C140.86,0.485,142.119,0,143.581,0H154.311z M145.494,6.798V29.95h6.905V6.798H145.494z"/><path fill="#57BA52" d="M171.907,13.075v23.674h-7.297V0h10.121l5.973,23.782V0h7.297v36.749h-10.1L171.907,13.075z"/><path fill="#57BA52" d="M4.771,130.03V45.221h16.842v69.12H44.97v15.689H4.771z"/><path fill="#57BA52" d="M53.991,130.03V45.221h16.841v84.809H53.991z"/><path fill="#57BA52" d="M119.601,45.221h17.092l-16.39,84.809H97.897L81.457,45.221h17.042c3.075,15.572,6.6,38.462,10.576,68.669 C113.084,83.649,116.593,60.759,119.601,45.221z"/><path fill="#57BA52" d="M159.999,114.341h28.07v15.689h-44.912V45.221h44.912v15.688h-28.07v18.848h23.358v15.737h-23.358V114.341z"/></g></svg>